<svg xmlns="http://www.w3.org/2000/svg" viewBox="0 0 500 500"><g id="freepik--Shadow--inject-73"><ellipse cx="255.62" cy="463.65" rx="194.88" ry="11.09" style="fill:#ebebeb"></ellipse></g><g id="freepik--Floor--inject-73"><polygon points="40.63 427.44 92.97 427.2 145.31 427.11 250 426.94 354.69 427.11 407.03 427.2 459.37 427.44 407.03 427.69 354.69 427.77 250 427.94 145.31 427.77 92.97 427.69 40.63 427.44" style="fill:#263238"></polygon></g><g id="freepik--Device--inject-73"><path d="M334.52,44.59H165.46A17.26,17.26,0,0,0,148.36,62V410a17.27,17.27,0,0,0,17.1,17.42H334.52A17.29,17.29,0,0,0,351.64,410V62A17.28,17.28,0,0,0,334.52,44.59Zm6.42,354.67c0,9.16-6.86,16.57-15.32,16.57H174.38c-8.48,0-15.34-7.41-15.34-16.57V75.2c0-18.66,6.86-19.57,15.34-19.57h30.3c1.76,0,3.2,2,3.2,4.48v1.07C207.88,67,211.06,67,215,67H285c3.94,0,7.1,0,7.1-5.83V60.11c0-2.48,1.42-4.48,3.21-4.48h30.29c8.46,0,15.32,2.48,15.32,19.57Z" style="fill:#263238"></path><path d="M340.94,75.2V399.26c0,9.16-6.86,16.57-15.32,16.57H174.38c-8.48,0-15.34-7.41-15.34-16.57V75.2c0-18.66,6.86-19.57,15.34-19.57h30.3c1.76,0,3.2,2,3.2,4.48v1.07C207.88,67,211.06,67,215,67H285c3.94,0,7.1,0,7.1-5.83V60.11c0-2.48,1.42-4.48,3.21-4.48h30.29C334.08,55.63,340.94,58.11,340.94,75.2Z" style="fill:#fff"></path><g id="freepik--u5Zjqx--inject-73"><path d="M199.45,62.91l-.29.29-.17.17a3.94,3.94,0,0,0-2.82-1.17,3.9,3.9,0,0,0-2.82,1.17c-.06,0-.11-.11-.16-.16l-.29-.29h0l.37-.33a4.06,4.06,0,0,1,.86-.55,4.56,4.56,0,0,1,1.13-.38l.57-.07h.5l.38,0a4.05,4.05,0,0,1,1,.25,4.58,4.58,0,0,1,.71.33,3.85,3.85,0,0,1,.67.47l.31.27Z" style="fill:#dbdbdb"></path><path d="M194.27,64.29l-.46-.46a3.27,3.27,0,0,1,1.88-.95,3.32,3.32,0,0,1,2.83.94l-.46.47a2.62,2.62,0,0,0-1.89-.79A2.66,2.66,0,0,0,194.27,64.29Z" style="fill:#dbdbdb"></path><path d="M197.6,64.75l-.46.46a1.38,1.38,0,0,0-1.94,0l-.46-.46A2,2,0,0,1,197.6,64.75Z" style="fill:#dbdbdb"></path><path d="M196.58,65.63a.41.41,0,0,1-.41.41.41.41,0,0,1-.42-.41.42.42,0,0,1,.42-.42A.41.41,0,0,1,196.58,65.63Z" style="fill:#dbdbdb"></path></g><path d="M170.9,63.8a1.21,1.21,0,1,1,1.21,1.2A1.21,1.21,0,0,1,170.9,63.8Z" style="fill:#dbdbdb"></path><path d="M174.7,63.8a1.21,1.21,0,1,1,1.21,1.2A1.21,1.21,0,0,1,174.7,63.8Z" style="fill:#dbdbdb"></path><path d="M178.5,63.8a1.21,1.21,0,1,1,1.2,1.2A1.21,1.21,0,0,1,178.5,63.8Z" style="fill:#dbdbdb"></path><path d="M182.3,63.8a1.21,1.21,0,1,1,1.2,1.2A1.21,1.21,0,0,1,182.3,63.8Z" style="fill:#dbdbdb"></path><path d="M186.09,63.8A1.21,1.21,0,1,1,187.3,65,1.21,1.21,0,0,1,186.09,63.8Z" style="fill:#dbdbdb"></path><path d="M327.3,66.43h-9.82V61.88h9.82Zm-9.32-.5h8.82V62.38H318Z" style="fill:#dbdbdb"></path><rect x="318.3" y="62.65" width="6.33" height="3" style="fill:#dbdbdb"></rect><rect x="327.3" y="62.94" width="0.87" height="2.43" style="fill:#dbdbdb"></rect><path d="M259.55,59.76H240.44a1.18,1.18,0,0,1-1.18-1.18h0a1.18,1.18,0,0,1,1.18-1.18h19.11a1.18,1.18,0,0,1,1.18,1.18h0A1.18,1.18,0,0,1,259.55,59.76Z" style="fill:#fff"></path><rect x="185.51" y="246.74" width="130.66" height="0.67" style="fill:#c7c7c7"></rect><path d="M208.61,247.07a1.88,1.88,0,1,1-1.88-1.88A1.89,1.89,0,0,1,208.61,247.07Z" style="fill:#c7c7c7"></path><path d="M185.77,250.91A1.63,1.63,0,0,1,186,250a.81.81,0,0,1,1.42,0,1.63,1.63,0,0,1,.26.92,1.61,1.61,0,0,1-.26.92.8.8,0,0,1-1.42,0A1.61,1.61,0,0,1,185.77,250.91Zm1.52,0a1.24,1.24,0,0,0-.19-.68.39.39,0,0,0-.72,0,1.24,1.24,0,0,0-.19.68,1.22,1.22,0,0,0,.19.68.39.39,0,0,0,.72,0A1.22,1.22,0,0,0,187.29,250.91Z" style="fill:#c7c7c7"></path><path d="M188.86,250.18a.29.29,0,0,1,.29.29.29.29,0,0,1-.57,0A.29.29,0,0,1,188.86,250.18Zm0,1.53a.29.29,0,1,1-.28.29A.29.29,0,0,1,188.86,251.71Z" style="fill:#c7c7c7"></path><path d="M191.48,251.54a.22.22,0,0,1-.22.22h0v.29a.21.21,0,0,1-.42,0v-.29h-1.21a.24.24,0,0,1-.14,0,.22.22,0,0,1,0-.3l1.42-1.77h.1s0,0,0,0h.14l0,0h0v0h0a0,0,0,0,1,0,0h0s0,0,0,0v0h0v1.55h0A.22.22,0,0,1,191.48,251.54Zm-.68-1.16-.77,1h.77Z" style="fill:#c7c7c7"></path><path d="M193.77,251.34a.92.92,0,0,1-1.84,0,.9.9,0,0,1,.41-.76.65.65,0,0,1-.13-.38.64.64,0,0,1,.64-.63.63.63,0,0,1,.63.63.64.64,0,0,1-.12.38A.92.92,0,0,1,193.77,251.34Zm-.42,0a.5.5,0,0,0-.5-.5.51.51,0,0,0-.5.5.5.5,0,0,0,.5.5A.5.5,0,0,0,193.35,251.34Zm-.72-1.14a.22.22,0,0,0,.22.22.22.22,0,0,0,0-.44A.22.22,0,0,0,192.63,250.2Z" style="fill:#c7c7c7"></path><path d="M307.1,251.08a.23.23,0,0,1,.23-.23h.72a.23.23,0,0,1,0,.46h-.72A.23.23,0,0,1,307.1,251.08Z" style="fill:#c7c7c7"></path><path d="M310.08,250.62a1,1,0,0,1-.67,1.64,1,1,0,0,1-.68-.28.23.23,0,0,1,0-.31.21.21,0,0,1,.31,0,.51.51,0,0,0,.37.15.51.51,0,0,0,.36-.15.52.52,0,0,0,.16-.37.49.49,0,0,0-.16-.37.51.51,0,0,0-.36-.15.24.24,0,0,1-.16-.07h0a.21.21,0,0,1,0-.3l.39-.4H309a.22.22,0,1,1,0-.44h1.13a.22.22,0,0,1,.22.22.3.3,0,0,1,0,.1l0,.06-.49.5A.71.71,0,0,1,310.08,250.62Z" style="fill:#c7c7c7"></path><path d="M311.34,250.18a.29.29,0,0,1,.29.29.29.29,0,0,1-.58,0A.29.29,0,0,1,311.34,250.18Zm0,1.53a.29.29,0,1,1-.29.29A.29.29,0,0,1,311.34,251.71Z" style="fill:#c7c7c7"></path><path d="M313.63,252.05a.21.21,0,0,1-.21.21h-1.37a.2.2,0,0,1-.16-.07.22.22,0,0,1,0-.3l1.14-1a.49.49,0,0,0,.16-.37.54.54,0,0,0-.12-.34.5.5,0,0,0-.37-.16.55.55,0,0,0-.34.13l-.12.11a.21.21,0,1,1-.28-.32l.12-.11a.93.93,0,0,1,1.3.07.92.92,0,0,1-.06,1.3l-.73.66h.82A.21.21,0,0,1,313.63,252.05Z" style="fill:#c7c7c7"></path><path d="M315.9,252.05a.21.21,0,0,1-.21.21h-1.38a.19.19,0,0,1-.15-.07.21.21,0,0,1,0-.3l1.14-1a.49.49,0,0,0,.16-.37.5.5,0,0,0-.13-.34A.49.49,0,0,0,315,250a.51.51,0,0,0-.33.13l-.12.11a.21.21,0,0,1-.3,0,.22.22,0,0,1,0-.3l.12-.11a.92.92,0,0,1,.62-.23.93.93,0,0,1,.69.3.91.91,0,0,1,.24.62.92.92,0,0,1-.31.68l-.72.66h.82A.22.22,0,0,1,315.9,252.05Z" style="fill:#c7c7c7"></path><rect x="201.61" y="95.98" width="98.46" height="98.46" style="fill:#92E3A9"></rect><rect x="201.61" y="95.98" width="98.46" height="98.46" style="fill:#92E3A9"></rect><path d="M239.69,177.58a10.52,10.52,0,1,1-10.52-10.52A10.52,10.52,0,0,1,239.69,177.58Z" style="fill:#fff"></path><rect x="231.65" y="124.59" width="8.03" height="52.87" style="fill:#fff"></rect><path d="M273.73,162.28a10.52,10.52,0,1,1-10.52-10.52A10.52,10.52,0,0,1,273.73,162.28Z" style="fill:#fff"></path><rect x="265.7" y="109.29" width="8.03" height="52.87" style="fill:#fff"></rect><polygon points="273.74 109.4 231.65 131.66 231.65 124.59 273.74 102.33 273.74 109.4" style="fill:#fff"></polygon><polygon points="273.74 122.72 231.65 144.98 231.65 137.91 273.74 115.65 273.74 122.72" style="fill:#fff"></polygon><rect x="231.05" y="200.76" width="39.6" height="2.52" style="fill:#37474f"></rect><rect x="241.94" y="205.76" width="17.82" height="1.98" style="fill:#a6a6a6"></rect><polygon points="294.56 232.71 294.56 223.98 303.52 228.34 294.56 232.71" style="fill:#92E3A9"></polygon><polygon points="287.4 232.71 287.4 223.98 296.36 228.34 287.4 232.71" style="fill:#92E3A9"></polygon><polygon points="207.12 223.98 207.12 232.71 198.16 228.34 207.12 223.98" style="fill:#92E3A9"></polygon><polygon points="214.29 223.98 214.29 232.71 205.33 228.34 214.29 223.98" style="fill:#92E3A9"></polygon><rect x="244.35" y="220.62" width="3.99" height="15.45" style="fill:#92E3A9"></rect><rect x="251.66" y="220.62" width="3.99" height="15.45" style="fill:#92E3A9"></rect><path d="M310.62,267.61a.57.57,0,0,1-.57.58.58.58,0,1,1,0-1.15A.57.57,0,0,1,310.62,267.61Z" style="fill:#a6a6a6"></path><path d="M313.31,267.61a.58.58,0,0,1-.58.58.58.58,0,0,1,0-1.15A.58.58,0,0,1,313.31,267.61Z" style="fill:#a6a6a6"></path><path d="M316,267.61a.58.58,0,1,1-.57-.57A.58.58,0,0,1,316,267.61Z" style="fill:#a6a6a6"></path><rect x="185.51" y="274.9" width="19.81" height="19.81" style="fill:#92E3A9"></rect><rect x="185.51" y="274.9" width="19.81" height="19.81" style="fill:#92E3A9"></rect><path d="M193.18,291.32a2.12,2.12,0,1,1-2.12-2.12A2.11,2.11,0,0,1,193.18,291.32Z" style="fill:#fff"></path><rect x="191.56" y="280.66" width="1.62" height="10.64" style="fill:#fff"></rect><circle cx="197.91" cy="288.24" r="2.12" style="fill:#fff"></circle><rect x="198.41" y="277.58" width="1.62" height="10.64" style="fill:#fff"></rect><polygon points="200.03 277.6 191.56 282.08 191.56 280.65 200.03 276.18 200.03 277.6" style="fill:#fff"></polygon><polygon points="200.03 280.28 191.56 284.76 191.56 283.34 200.03 278.86 200.03 280.28" style="fill:#fff"></polygon><polygon points="173.69 262.71 192.77 262.59 211.85 262.55 250 262.46 288.15 262.55 307.23 262.59 326.31 262.71 307.23 262.84 288.15 262.88 250 262.96 211.85 262.88 192.77 262.84 173.69 262.71" style="fill:#ebebeb"></polygon><polygon points="173.69 297.19 192.77 297.07 211.85 297.03 250 296.94 288.15 297.03 307.23 297.07 326.31 297.19 307.23 297.31 288.15 297.36 250 297.44 211.85 297.36 192.77 297.31 173.69 297.19" style="fill:#ebebeb"></polygon><path d="M187.15,267.9h-.6V269a.27.27,0,0,1-.53,0v-2.86a.26.26,0,0,1,.26-.26h.87a1,1,0,1,1,0,2.07Zm-.6-.54h.6a.5.5,0,1,0,0-1h-.6Z" style="fill:#a6a6a6"></path><path d="M189.08,265.83a.27.27,0,0,1,.27.26V269a.27.27,0,0,1-.53,0v-2.86A.26.26,0,0,1,189.08,265.83Z" style="fill:#a6a6a6"></path><path d="M192,268V269a.25.25,0,0,1-.25.25.27.27,0,0,1-.26-.2,1.08,1.08,0,0,1-.64.2,1.11,1.11,0,0,1-.82-.35,1.26,1.26,0,0,1,0-1.7,1.13,1.13,0,0,1,.82-.37,1.1,1.1,0,0,1,.64.22.28.28,0,0,1,.26-.22.26.26,0,0,1,.25.27Zm-.51,0a.7.7,0,0,0-.19-.5.61.61,0,0,0-.9,0,.74.74,0,0,0-.18.5.76.76,0,0,0,.18.5.63.63,0,0,0,.9,0A.72.72,0,0,0,191.52,268Z" style="fill:#a6a6a6"></path><path d="M195,267.05v1.83a1.14,1.14,0,0,1-1.65,1,.26.26,0,0,1-.13-.35.27.27,0,0,1,.35-.1.67.67,0,0,0,.28.06.64.64,0,0,0,.6-.44.9.9,0,0,1-.46.12,1,1,0,0,1-1-1v-1.14a.26.26,0,0,1,.25-.26.26.26,0,0,1,.26.26v1.14a.5.5,0,0,0,.5.5.5.5,0,0,0,.5-.5v-1.14a.26.26,0,0,1,.25-.26A.26.26,0,0,1,195,267.05Z" style="fill:#a6a6a6"></path><path d="M196.5,266.19a.26.26,0,1,1-.52,0v-.1a.26.26,0,0,1,.52,0Zm0,.88V269a.26.26,0,0,1-.52,0v-1.88a.26.26,0,1,1,.52,0Z" style="fill:#a6a6a6"></path><path d="M199.35,267.8V269a.25.25,0,0,1-.25.25.26.26,0,0,1-.26-.25V267.8a.5.5,0,0,0-.5-.49.49.49,0,0,0-.49.49V269a.11.11,0,0,1,0,.05.26.26,0,0,1-.25.2.25.25,0,0,1-.26-.25v-1.91a.26.26,0,0,1,.26-.26.27.27,0,0,1,.24.16.88.88,0,0,1,.51-.16A1,1,0,0,1,199.35,267.8Z" style="fill:#a6a6a6"></path><path d="M202.46,268v.9a1.17,1.17,0,0,1-1.16,1.16,1.1,1.1,0,0,1-.51-.12.26.26,0,0,1-.12-.35.27.27,0,0,1,.35-.12.64.64,0,0,0,.28.07.65.65,0,0,0,.63-.52,1.12,1.12,0,0,1-1.45-.17,1.23,1.23,0,0,1-.34-.86,1.27,1.27,0,0,1,.34-.86,1.16,1.16,0,0,1,.82-.36,1.1,1.1,0,0,1,.65.21.26.26,0,0,1,.51.05v1Zm-.52,0a.79.79,0,0,0-.18-.49.64.64,0,0,0-.46-.21.62.62,0,0,0-.45.21.74.74,0,0,0-.19.49.71.71,0,0,0,.19.5.61.61,0,0,0,.45.2.63.63,0,0,0,.46-.2A.75.75,0,0,0,201.94,268Z" style="fill:#a6a6a6"></path><path d="M207,267.8V269a.26.26,0,0,1-.51,0V267.8a.5.5,0,0,0-.51-.49.48.48,0,0,0-.48.49V269a.11.11,0,0,1,0,.05.26.26,0,0,1-.26.2.25.25,0,0,1-.25-.25v-1.91a.26.26,0,0,1,.25-.26.25.25,0,0,1,.24.16.93.93,0,0,1,.51-.16A1,1,0,0,1,207,267.8Z" style="fill:#a6a6a6"></path><path d="M207.73,268a1.21,1.21,0,0,1,1.18-1.21,1.16,1.16,0,0,1,1.17,1.13v0s0,0,0,.05a.23.23,0,0,1-.25.19h-1.53a.58.58,0,0,0,.16.32.8.8,0,0,0,.46.22.78.78,0,0,0,.51-.13.27.27,0,0,1,.36,0,.22.22,0,0,1,0,.31,1.22,1.22,0,0,1-.87.32A1.2,1.2,0,0,1,207.73,268Zm.53-.23h1.37a.79.79,0,0,0-.72-.52A.68.68,0,0,0,208.26,267.77Z" style="fill:#a6a6a6"></path><path d="M212.45,267.22l-.58.79.58.8a.26.26,0,0,1,0,.35.3.3,0,0,1-.15,0,.34.34,0,0,1-.22-.1l-.48-.67-.48.67a.3.3,0,0,1-.2.1.3.3,0,0,1-.16,0,.25.25,0,0,1-.05-.35l.58-.8-.58-.79a.24.24,0,0,1,.05-.34.26.26,0,0,1,.36.05l.48.65.48-.65a.27.27,0,0,1,.37-.05A.25.25,0,0,1,212.45,267.22Z" style="fill:#a6a6a6"></path><path d="M214.55,267.06a.28.28,0,0,1-.27.27h-.12v1.35a.26.26,0,0,1,.26.27.25.25,0,0,1-.26.26.54.54,0,0,1-.54-.53v-1.35h-.14a.27.27,0,1,1,0-.54h.14v-.7a.27.27,0,0,1,.54,0v.7h.12A.28.28,0,0,1,214.55,267.06Z" style="fill:#a6a6a6"></path><rect x="309.52" y="274.9" width="6.47" height="0.85" style="fill:#a6a6a6"></rect><rect x="309.52" y="276.6" width="6.47" height="0.85" style="fill:#a6a6a6"></rect><rect x="309.52" y="278.31" width="6.47" height="0.85" style="fill:#a6a6a6"></rect><rect x="210.08" y="275.33" width="39.91" height="2.13" style="fill:#a6a6a6"></rect><rect x="210.08" y="279.59" width="22.64" height="1.07" style="fill:#c7c7c7"></rect><rect x="185.51" y="299.6" width="19.81" height="19.81" style="fill:#92E3A9"></rect><rect x="185.51" y="299.6" width="19.81" height="19.81" style="fill:#455a64"></rect><path d="M193.18,316a2.12,2.12,0,1,1-2.12-2.11A2.12,2.12,0,0,1,193.18,316Z" style="fill:#fff"></path><rect x="191.56" y="305.35" width="1.62" height="10.64" style="fill:#fff"></rect><path d="M200,312.94a2.12,2.12,0,1,1-2.12-2.12A2.12,2.12,0,0,1,200,312.94Z" style="fill:#fff"></path><rect x="198.41" y="302.27" width="1.62" height="10.64" style="fill:#fff"></rect><polygon points="200.03 302.29 191.56 306.77 191.56 305.35 200.03 300.87 200.03 302.29" style="fill:#fff"></polygon><polygon points="200.03 304.98 191.56 309.45 191.56 308.03 200.03 303.55 200.03 304.98" style="fill:#fff"></polygon><rect x="309.52" y="299.6" width="6.47" height="0.85" style="fill:#a6a6a6"></rect><rect x="309.52" y="301.3" width="6.47" height="0.85" style="fill:#a6a6a6"></rect><rect x="309.52" y="303" width="6.47" height="0.85" style="fill:#a6a6a6"></rect><rect x="210.08" y="300.02" width="39.91" height="2.13" style="fill:#a6a6a6"></rect><rect x="210.08" y="304.29" width="22.64" height="1.07" style="fill:#c7c7c7"></rect><polygon points="173.69 321.69 192.77 321.57 211.85 321.52 250 321.44 288.15 321.52 307.23 321.57 326.31 321.69 307.23 321.81 288.15 321.86 250 321.94 211.85 321.86 192.77 321.81 173.69 321.69" style="fill:#ebebeb"></polygon><rect x="185.51" y="324.09" width="19.81" height="19.81" style="fill:#92E3A9"></rect><rect x="185.51" y="324.09" width="19.81" height="19.81" style="fill:#c7c7c7"></rect><path d="M193.18,340.51a2.12,2.12,0,1,1-2.12-2.11A2.12,2.12,0,0,1,193.18,340.51Z" style="fill:#fff"></path><rect x="191.56" y="329.85" width="1.62" height="10.64" style="fill:#fff"></rect><path d="M200,337.43a2.12,2.12,0,1,1-2.12-2.11A2.12,2.12,0,0,1,200,337.43Z" style="fill:#fff"></path><rect x="198.41" y="326.77" width="1.62" height="10.64" style="fill:#fff"></rect><polygon points="200.03 326.79 191.56 331.27 191.56 329.85 200.03 325.37 200.03 326.79" style="fill:#fff"></polygon><polygon points="200.03 329.47 191.56 333.95 191.56 332.53 200.03 328.05 200.03 329.47" style="fill:#fff"></polygon><rect x="309.52" y="324.09" width="6.47" height="0.85" style="fill:#a6a6a6"></rect><rect x="309.52" y="325.8" width="6.47" height="0.85" style="fill:#a6a6a6"></rect><rect x="309.52" y="327.5" width="6.47" height="0.85" style="fill:#a6a6a6"></rect><rect x="210.08" y="324.52" width="39.91" height="2.13" style="fill:#a6a6a6"></rect><rect x="210.08" y="328.78" width="22.64" height="1.07" style="fill:#c7c7c7"></rect><polygon points="173.69 346.19 192.77 346.06 211.85 346.02 250 345.94 288.15 346.02 307.23 346.06 326.31 346.19 307.23 346.31 288.15 346.35 250 346.44 211.85 346.35 192.77 346.31 173.69 346.19" style="fill:#ebebeb"></polygon><rect x="185.51" y="348.59" width="19.81" height="19.81" style="fill:#92E3A9"></rect><rect x="185.51" y="348.59" width="19.81" height="19.81" style="fill:#92E3A9"></rect><path d="M193.18,365a2.12,2.12,0,1,1-2.12-2.12A2.11,2.11,0,0,1,193.18,365Z" style="fill:#fff"></path><rect x="191.56" y="354.35" width="1.62" height="10.64" style="fill:#fff"></rect><path d="M200,361.93a2.12,2.12,0,1,1-2.12-2.12A2.12,2.12,0,0,1,200,361.93Z" style="fill:#fff"></path><rect x="198.41" y="351.27" width="1.62" height="10.64" style="fill:#fff"></rect><polygon points="200.03 351.29 191.56 355.77 191.56 354.35 200.03 349.87 200.03 351.29" style="fill:#fff"></polygon><polygon points="200.03 353.97 191.56 358.45 191.56 357.03 200.03 352.55 200.03 353.97" style="fill:#fff"></polygon><rect x="309.52" y="348.59" width="6.47" height="0.85" style="fill:#a6a6a6"></rect><rect x="309.52" y="350.29" width="6.47" height="0.85" style="fill:#a6a6a6"></rect><rect x="309.52" y="352" width="6.47" height="0.85" style="fill:#a6a6a6"></rect><rect x="210.08" y="349.02" width="39.91" height="2.13" style="fill:#a6a6a6"></rect><rect x="210.08" y="353.28" width="22.64" height="1.07" style="fill:#c7c7c7"></rect><polygon points="173.69 370.68 192.77 370.56 211.85 370.52 250 370.43 288.15 370.52 307.23 370.56 326.31 370.68 307.23 370.81 288.15 370.85 250 370.93 211.85 370.85 192.77 370.81 173.69 370.68" style="fill:#ebebeb"></polygon><rect x="185.51" y="373.09" width="19.81" height="19.81" style="fill:#92E3A9"></rect><rect x="185.51" y="373.09" width="19.81" height="19.81" style="fill:#37474f"></rect><path d="M193.18,389.51a2.12,2.12,0,1,1-2.12-2.12A2.12,2.12,0,0,1,193.18,389.51Z" style="fill:#fff"></path><rect x="191.56" y="378.84" width="1.62" height="10.64" style="fill:#fff"></rect><path d="M200,386.43a2.12,2.12,0,1,1-2.12-2.12A2.11,2.11,0,0,1,200,386.43Z" style="fill:#fff"></path><rect x="198.41" y="375.76" width="1.62" height="10.64" style="fill:#fff"></rect><polygon points="200.03 375.79 191.56 380.26 191.56 378.84 200.03 374.36 200.03 375.79" style="fill:#fff"></polygon><polygon points="200.03 378.47 191.56 382.95 191.56 381.52 200.03 377.05 200.03 378.47" style="fill:#fff"></polygon><rect x="309.52" y="373.09" width="6.47" height="0.85" style="fill:#a6a6a6"></rect><rect x="309.52" y="374.79" width="6.47" height="0.85" style="fill:#a6a6a6"></rect><rect x="309.52" y="376.5" width="6.47" height="0.85" style="fill:#a6a6a6"></rect><rect x="210.08" y="373.51" width="39.91" height="2.13" style="fill:#a6a6a6"></rect><rect x="210.08" y="377.78" width="22.64" height="1.07" style="fill:#c7c7c7"></rect></g><g id="freepik--Plant--inject-73"><rect x="419.62" y="46.72" width="1" height="181.95" style="fill:#dbdbdb"></rect><path d="M422.25,46.72a2.13,2.13,0,1,1-2.13-2.13A2.13,2.13,0,0,1,422.25,46.72Z" style="fill:#a6a6a6"></path><polygon points="443.86 229.81 420.11 182.51 395.83 228.9 394.94 228.44 420.13 180.32 444.76 229.36 443.86 229.81" style="fill:#dbdbdb"></polygon><path d="M422.25,181.41a2.13,2.13,0,1,1-2.13-2.13A2.13,2.13,0,0,1,422.25,181.41Z" style="fill:#a6a6a6"></path><polygon points="444.23 228.67 443.37 242.1 441.35 274.07 398.34 274.07 396.31 242.1 395.46 228.67 444.23 228.67" style="fill:#92E3A9"></polygon><polygon points="444.23 228.67 443.37 242.1 396.31 242.1 395.46 228.67 444.23 228.67" style="opacity:0.1"></polygon><rect x="392.51" y="224.37" width="54.67" height="10.43" style="fill:#92E3A9"></rect><path d="M383.73,232c-1.64-2.3,4.66-4.49,8.08-2.6C391.81,229.39,386,235.23,383.73,232Z" style="fill:#455a64"></path><path d="M391.66,229.54a14.71,14.71,0,0,1-3,1.36,11,11,0,0,1-3.26.62l3.13-1C389.54,230.15,390.58,229.8,391.66,229.54Z" style="fill:#263238"></path><path d="M383.33,247.18c-2.68-.89,1.1-6.38,5-6.88C388.31,240.3,387.1,248.43,383.33,247.18Z" style="fill:#455a64"></path><path d="M388.28,240.51a15.26,15.26,0,0,1-1.64,2.89,11.14,11.14,0,0,1-2.27,2.43l1.92-2.68C386.93,242.26,387.56,241.36,388.28,240.51Z" style="fill:#263238"></path><path d="M396.44,249.33c-.56,2.77-6.47-.33-7.42-4.13C389,245.2,397.24,245.44,396.44,249.33Z" style="fill:#455a64"></path><path d="M389.23,245.21a15.31,15.31,0,0,1,3.07,1.28,11,11,0,0,1,2.68,2l-2.89-1.58C391.13,246.34,390.16,245.82,389.23,245.21Z" style="fill:#263238"></path><path d="M401,259.42c-.56,2.76-6.47-.34-7.42-4.13C393.58,255.29,401.8,255.52,401,259.42Z" style="fill:#455a64"></path><path d="M393.79,255.3a15.31,15.31,0,0,1,3.07,1.28,11.19,11.19,0,0,1,2.68,2L396.65,257C395.69,256.43,394.73,255.91,393.79,255.3Z" style="fill:#263238"></path><path d="M405.85,271.78c-.56,2.76-6.47-.34-7.42-4.13C398.43,267.65,406.65,267.88,405.85,271.78Z" style="fill:#455a64"></path><path d="M398.64,267.66a14.45,14.45,0,0,1,3.06,1.28,11.05,11.05,0,0,1,2.69,2l-2.89-1.58C400.54,268.79,399.57,268.27,398.64,267.66Z" style="fill:#263238"></path><path d="M401.08,286c-2.52,1.28-3.76-5.28-1.38-8.38C399.7,277.61,404.62,284.19,401.08,286Z" style="fill:#455a64"></path><path d="M399.82,277.78a14.39,14.39,0,0,1,.9,3.2,10.87,10.87,0,0,1,.13,3.32l-.55-3.25C400.12,280,399.93,278.89,399.82,277.78Z" style="fill:#263238"></path><path d="M383.41,285.67c-1.27-2.52,5.28-3.76,8.39-1.38C391.8,284.29,385.21,289.21,383.41,285.67Z" style="fill:#455a64"></path><path d="M391.63,284.41a14.39,14.39,0,0,1-3.2.9,10.87,10.87,0,0,1-3.32.13l3.25-.55C389.44,284.71,390.52,284.52,391.63,284.41Z" style="fill:#263238"></path><path d="M392.06,243c-2.39,1.5-4.22-4.92-2.13-8.22C389.93,234.8,395.43,240.91,392.06,243Z" style="fill:#455a64"></path><path d="M390.07,235a14.93,14.93,0,0,1,1.19,3.1,11.46,11.46,0,0,1,.43,3.3l-.85-3.19C390.56,237.11,390.27,236.06,390.07,235Z" style="fill:#263238"></path><path d="M395.55,235.52c-2.39,1.5-4.22-4.92-2.13-8.22C393.42,227.3,398.92,233.41,395.55,235.52Z" style="fill:#455a64"></path><path d="M393.56,227.46a14.93,14.93,0,0,1,1.19,3.1,11.12,11.12,0,0,1,.42,3.3l-.84-3.19C394.05,229.61,393.76,228.55,393.56,227.46Z" style="fill:#263238"></path><path d="M398.48,230.72c-2.48.72-2.48-5.4.2-7.79C398.68,222.93,402,229.71,398.48,230.72Z" style="fill:#455a64"></path><path d="M398.76,223.11a13.45,13.45,0,0,1,.26,3,10,10,0,0,1-.45,3l.06-3C398.65,225.13,398.66,224.13,398.76,223.11Z" style="fill:#263238"></path><path d="M387.56,221.33c.27-2.81,6.47-.35,7.82,3.32C395.38,224.65,387.19,225.29,387.56,221.33Z" style="fill:#455a64"></path><path d="M395.17,224.67a15.16,15.16,0,0,1-3.18-1,11,11,0,0,1-2.88-1.66l3.05,1.26C393.17,223.74,394.18,224.16,395.17,224.67Z" style="fill:#263238"></path><path d="M389.88,257.8c-2.72.76-2.65-5.91.29-8.49C390.17,249.31,393.71,256.73,389.88,257.8Z" style="fill:#455a64"></path><path d="M390.26,249.5a14.79,14.79,0,0,1,.26,3.31,10.84,10.84,0,0,1-.53,3.29l.09-3.3C390.12,251.71,390.15,250.61,390.26,249.5Z" style="fill:#263238"></path><path d="M395.08,268.83c-2.72.75-2.65-5.92.29-8.49C395.37,260.34,398.91,267.76,395.08,268.83Z" style="fill:#455a64"></path><path d="M395.46,260.53a14.69,14.69,0,0,1,.25,3.31,11.08,11.08,0,0,1-.52,3.28l.09-3.29C395.32,262.73,395.34,261.64,395.46,260.53Z" style="fill:#263238"></path><path d="M394.61,278.49c-2.73-.69.66-6.44,4.49-7.21C399.1,271.28,398.46,279.48,394.61,278.49Z" style="fill:#455a64"></path><path d="M399.08,271.5a15.2,15.2,0,0,1-1.43,3,11.11,11.11,0,0,1-2.09,2.59l1.72-2.81C397.86,273.33,398.43,272.4,399.08,271.5Z" style="fill:#263238"></path><path d="M387.53,280.31c.22-2.81,6.47-.46,7.88,3.19C395.41,283.5,387.22,284.28,387.53,280.31Z" style="fill:#455a64"></path><path d="M395.2,283.51a14.6,14.6,0,0,1-3.2-.89,11.23,11.23,0,0,1-2.91-1.62l3.07,1.21C393.18,282.62,394.2,283,395.2,283.51Z" style="fill:#263238"></path><path d="M397,217.1c1.56-2.35,5.87,2.75,5.33,6.62C402.36,223.72,394.83,220.42,397,217.1Z" style="fill:#455a64"></path><path d="M402.17,223.63a14.51,14.51,0,0,1-2.36-2.34,11.09,11.09,0,0,1-1.75-2.82l2.08,2.55C400.83,221.87,401.53,222.72,402.17,223.63Z" style="fill:#263238"></path><path d="M403.46,224.37a9.75,9.75,0,0,0-4.7-1.3,3.73,3.73,0,0,0-2.21.82c-.33.23-.62.53-.93.78l-.84.89a23.12,23.12,0,0,0-2.79,4.05,27.21,27.21,0,0,0-2,4.48,17.44,17.44,0,0,0-.92,9.53,63.19,63.19,0,0,0,3.54,9.2c1.33,3,2.73,6.05,4,9.11a37.47,37.47,0,0,1,3,9.59,21.77,21.77,0,0,1,.18,5,10.54,10.54,0,0,1-1.52,4.83,6.54,6.54,0,0,1-4.19,2.73,13.89,13.89,0,0,1-5-.11,14.75,14.75,0,0,0,4.92-.15,6.12,6.12,0,0,0,3.84-2.74,10.07,10.07,0,0,0,1.3-4.61,21.05,21.05,0,0,0-.31-4.88,39.88,39.88,0,0,0-3.05-9.34c-1.31-3-2.74-6-4.1-9.06a62.19,62.19,0,0,1-3.51-9.39,17.52,17.52,0,0,1,1.08-10,28.27,28.27,0,0,1,2.18-4.54,23.11,23.11,0,0,1,3-4.06l.91-.87c.34-.26.65-.55,1-.78a4.1,4.1,0,0,1,2.41-.78A9.54,9.54,0,0,1,403.46,224.37Z" style="fill:#455a64"></path><path d="M426.85,216.11c2.14-1.84,4.9,4.23,3.33,7.81C430.18,223.92,423.83,218.7,426.85,216.11Z" style="fill:#455a64"></path><path d="M430,223.79a14.81,14.81,0,0,1-1.64-2.9,11,11,0,0,1-.91-3.19l1.31,3C429.21,221.73,429.65,222.73,430,223.79Z" style="fill:#263238"></path><path d="M415.15,219.44c.34-2.8,6.48-.18,7.73,3.53C422.88,223,414.67,223.39,415.15,219.44Z" style="fill:#455a64"></path><path d="M422.67,223a14.6,14.6,0,0,1-3.16-1,11,11,0,0,1-2.83-1.74l3,1.35C420.69,222,421.69,222.44,422.67,223Z" style="fill:#263238"></path><path d="M406.51,231.48c-1.6-2.32,4.74-4.42,8.13-2.48C414.64,229,408.76,234.76,406.51,231.48Z" style="fill:#455a64"></path><path d="M414.48,229.15a14.73,14.73,0,0,1-3.05,1.32,11,11,0,0,1-3.27.57l3.14-1C412.35,229.73,413.4,229.4,414.48,229.15Z" style="fill:#263238"></path><path d="M404.32,246c-2.5-1.31,2.12-6.13,6-6C410.34,240,407.85,247.82,404.32,246Z" style="fill:#455a64"></path><path d="M410.28,240.19a15.74,15.74,0,0,1-2.08,2.59,11,11,0,0,1-2.63,2l2.32-2.34C408.67,241.7,409.43,240.92,410.28,240.19Z" style="fill:#263238"></path><path d="M405.77,258.83c-2.8-.39-.06-6.48,3.66-7.66C409.43,251.17,409.71,259.38,405.77,258.83Z" style="fill:#455a64"></path><path d="M409.43,251.38a15.14,15.14,0,0,1-1.08,3.14,11.06,11.06,0,0,1-1.8,2.8l1.4-3C408.42,253.34,408.89,252.35,409.43,251.38Z" style="fill:#263238"></path><path d="M410.18,267.05c-2.72.75-2.61-5.93.34-8.49C410.52,258.56,414,266,410.18,267.05Z" style="fill:#455a64"></path><path d="M410.61,258.76a15.29,15.29,0,0,1,.24,3.31,11.11,11.11,0,0,1-.55,3.28l.11-3.29C410.45,261,410.49,259.86,410.61,258.76Z" style="fill:#263238"></path><path d="M421.93,274c-1.56,2.36-5.88-2.73-5.34-6.61C416.59,267.43,424.12,270.73,421.93,274Z" style="fill:#455a64"></path><path d="M416.78,267.52a14.92,14.92,0,0,1,2.36,2.34,10.86,10.86,0,0,1,1.76,2.82l-2.09-2.55C418.12,269.28,417.42,268.44,416.78,267.52Z" style="fill:#263238"></path><path d="M422.43,230.05c-2.75-.59.41-6.46,4.21-7.38C426.64,222.67,426.32,230.89,422.43,230.05Z" style="fill:#455a64"></path><path d="M426.63,222.88a15,15,0,0,1-1.31,3.05,11.26,11.26,0,0,1-2,2.67l1.61-2.88C425.48,224.77,426,223.81,426.63,222.88Z" style="fill:#263238"></path><path d="M418.7,234.39c-2.63,1-3.22-5.62-.55-8.48C418.15,225.91,422.41,233,418.7,234.39Z" style="fill:#455a64"></path><path d="M418.26,226.1a15,15,0,0,1,.58,3.27,10.91,10.91,0,0,1-.2,3.32l-.23-3.29C418.34,228.31,418.25,227.21,418.26,226.1Z" style="fill:#263238"></path><path d="M414.43,242.4c-2.31,1.62-4.46-4.69-2.54-8.1C411.89,234.3,417.69,240.12,414.43,242.4Z" style="fill:#455a64"></path><path d="M412,234.45a15,15,0,0,1,1.35,3,11,11,0,0,1,.59,3.27l-1-3.14C412.63,236.58,412.29,235.53,412,234.45Z" style="fill:#263238"></path><path d="M415.14,251.33c-1.45,2.42-6-2.46-5.64-6.35C409.5,245,417.18,247.91,415.14,251.33Z" style="fill:#455a64"></path><path d="M409.69,245.05a15,15,0,0,1,2.47,2.23,11,11,0,0,1,1.89,2.73l-2.21-2.44C411.11,246.75,410.37,245.94,409.69,245.05Z" style="fill:#263238"></path><path d="M417.05,259.11c-.78,2.72-6.42-.85-7.07-4.7C410,254.41,418.15,255.29,417.05,259.11Z" style="fill:#455a64"></path><path d="M410.19,254.43a14.7,14.7,0,0,1,2.95,1.52,11.13,11.13,0,0,1,2.52,2.17l-2.76-1.8C412,255.71,411.07,255.11,410.19,254.43Z" style="fill:#263238"></path><path d="M420.87,264.62c.36,2.8-6.23,1.77-8.36-1.51C412.51,263.11,420.36,260.67,420.87,264.62Z" style="fill:#455a64"></path><path d="M412.72,263.05a14.67,14.67,0,0,1,3.31.22,11,11,0,0,1,3.17,1L416,263.7C414.88,263.51,413.8,263.32,412.72,263.05Z" style="fill:#263238"></path><path d="M429.18,262.87c2.41,1.46-2.49,6-6.38,5.61C422.8,268.48,425.77,260.82,429.18,262.87Z" style="fill:#455a64"></path><path d="M422.88,268.28a14.83,14.83,0,0,1,2.23-2.45,11,11,0,0,1,2.75-1.87l-2.46,2.19C424.58,266.88,423.77,267.61,422.88,268.28Z" style="fill:#263238"></path><path d="M431,224.62a9.16,9.16,0,0,0-4.06-1.72,8.13,8.13,0,0,0-4.31.53,16.38,16.38,0,0,0-7,5.13,23.6,23.6,0,0,0-3.91,7.83,40.33,40.33,0,0,0-1.4,8.75,45.32,45.32,0,0,0,.18,8.87,27.42,27.42,0,0,0,2.34,8.47,12.92,12.92,0,0,0,2.5,3.56,7.18,7.18,0,0,0,3.76,2,10.55,10.55,0,0,0,4.37,0,8.05,8.05,0,0,0,3.9-2,7.72,7.72,0,0,1-3.83,2.28,10.65,10.65,0,0,1-4.53.19,7.74,7.74,0,0,1-4.11-2,13.73,13.73,0,0,1-2.75-3.68,26.43,26.43,0,0,1-2.56-8.7,47.32,47.32,0,0,1-.27-9.06,41.23,41.23,0,0,1,1.53-8.93,22.68,22.68,0,0,1,4.19-8.06,16.91,16.91,0,0,1,7.45-5.11A8.64,8.64,0,0,1,431,224.62Z" style="fill:#455a64"></path><path d="M437.63,232.22c-2.12,2.39-6.15-4-4.93-8.28C432.7,223.94,440.63,228.85,437.63,232.22Z" style="fill:#455a64"></path><path d="M432.9,224.07a16.6,16.6,0,0,1,2.28,3,12.82,12.82,0,0,1,1.52,3.45l-1.94-3.19C434.12,226.26,433.47,225.2,432.9,224.07Z" style="fill:#263238"></path><path d="M441.87,233.41c-3,1.23-3.81-6.29-.86-9.6C441,223.81,446,231.67,441.87,233.41Z" style="fill:#455a64"></path><path d="M441.14,224a17.27,17.27,0,0,1,.75,3.69,12.55,12.55,0,0,1-.13,3.77l-.36-3.72C441.29,226.52,441.16,225.28,441.14,224Z" style="fill:#263238"></path><path d="M441.09,241.83c-3.08-.87.93-7.3,5.3-8.06C446.39,233.77,445.43,243.05,441.09,241.83Z" style="fill:#455a64"></path><path d="M446.36,234a16.6,16.6,0,0,1-1.71,3.36,12.23,12.23,0,0,1-2.45,2.87l2-3.14C444.92,236.06,445.59,235,446.36,234Z" style="fill:#263238"></path><path d="M437,252.43c-2.43-2.09,3.92-6.22,8.2-5.07C445.19,247.36,440.41,255.37,437,252.43Z" style="fill:#455a64"></path><path d="M445.06,247.56a16.6,16.6,0,0,1-3,2.33,12.4,12.4,0,0,1-3.43,1.57l3.17-2C442.89,248.82,443.94,248.15,445.06,247.56Z" style="fill:#263238"></path><path d="M432.17,263.66c-2.42-2.09,3.92-6.22,8.2-5.07C440.37,258.59,435.59,266.6,432.17,263.66Z" style="fill:#455a64"></path><path d="M440.24,258.8a16.54,16.54,0,0,1-3,2.32,12.4,12.4,0,0,1-3.43,1.57l3.17-2C438.07,260.05,439.12,259.38,440.24,258.8Z" style="fill:#263238"></path><path d="M426.87,275.45c-2.43-2.09,3.91-6.22,8.2-5.07C435.07,270.38,430.29,278.39,426.87,275.45Z" style="fill:#455a64"></path><path d="M434.94,270.58a17.14,17.14,0,0,1-3,2.33,12.21,12.21,0,0,1-3.42,1.57l3.16-2C432.77,271.84,433.82,271.17,434.94,270.58Z" style="fill:#263238"></path><path d="M424.34,290.18c-2.94-1.27,1.89-7.1,6.32-7.28C430.66,282.9,428.48,292,424.34,290.18Z" style="fill:#455a64"></path><path d="M430.6,283.14a17.44,17.44,0,0,1-2.14,3.1,13,13,0,0,1-2.81,2.52l2.43-2.84C428.9,285,429.7,284,430.6,283.14Z" style="fill:#263238"></path><path d="M434.6,301.63c-2.61,1.85-5.09-5.3-2.93-9.18C431.67,292.45,438.29,299,434.6,301.63Z" style="fill:#455a64"></path><path d="M431.83,292.63a16.75,16.75,0,0,1,1.54,3.43,12.37,12.37,0,0,1,.7,3.71l-1.16-3.55C432.52,295,432.13,293.85,431.83,292.63Z" style="fill:#263238"></path><path d="M443.22,217.56c2.57,1.92-3.48,6.47-7.83,5.61C435.39,223.17,439.61,214.85,443.22,217.56Z" style="fill:#455a64"></path><path d="M435.5,223a16.71,16.71,0,0,1,2.8-2.52,12.37,12.37,0,0,1,3.31-1.8l-3,2.19C437.58,221.56,436.58,222.29,435.5,223Z" style="fill:#263238"></path><path d="M452.46,232.57c-.94,3.07-7.27-1.07-7.95-5.46C444.51,227.11,453.77,228.26,452.46,232.57Z" style="fill:#455a64"></path><path d="M444.75,227.15a17.13,17.13,0,0,1,3.33,1.77,12.7,12.7,0,0,1,2.82,2.51l-3.1-2.1C446.77,228.63,445.74,227.93,444.75,227.15Z" style="fill:#263238"></path><path d="M450.83,249c-2.23,2.29-6-4.29-4.56-8.5C446.27,240.49,454,245.75,450.83,249Z" style="fill:#455a64"></path><path d="M446.47,240.63a17.12,17.12,0,0,1,2.14,3.1,12.66,12.66,0,0,1,1.36,3.52L448.18,244C447.59,242.88,447,241.79,446.47,240.63Z" style="fill:#263238"></path><path d="M445.05,262.8c-2.84,1.49-4.33-5.94-1.68-9.49C443.37,253.31,449.05,260.72,445.05,262.8Z" style="fill:#455a64"></path><path d="M443.52,253.51a17.58,17.58,0,0,1,1.06,3.61,12.24,12.24,0,0,1,.19,3.77l-.67-3.68C443.88,256,443.65,254.76,443.52,253.51Z" style="fill:#263238"></path><path d="M439.66,274.26c-2.84,1.48-4.33-5.94-1.67-9.49C438,264.77,443.66,272.17,439.66,274.26Z" style="fill:#455a64"></path><path d="M438.13,265a16.92,16.92,0,0,1,1.07,3.62,12.8,12.8,0,0,1,.19,3.76l-.68-3.68C438.49,267.44,438.27,266.22,438.13,265Z" style="fill:#263238"></path><path d="M436.14,284.76c-2.59,1.88-5.14-5.25-3-9.15C433.11,275.61,439.8,282.12,436.14,284.76Z" style="fill:#455a64"></path><path d="M433.28,275.78a17.64,17.64,0,0,1,1.58,3.42,12.66,12.66,0,0,1,.73,3.7l-1.2-3.54C434,278.18,433.59,277,433.28,275.78Z" style="fill:#263238"></path><path d="M438.91,293.25c-.71,3.12-7.34-.53-8.33-4.86C430.58,288.39,439.9,288.85,438.91,293.25Z" style="fill:#455a64"></path><path d="M430.82,288.41a17.4,17.4,0,0,1,3.45,1.52,12.58,12.58,0,0,1,3,2.29L434,290.36C433,289.74,431.87,289.12,430.82,288.41Z" style="fill:#263238"></path><path d="M448.4,290.56c2.43,2.08-3.89,6.23-8.18,5.09C440.22,295.65,445,287.62,448.4,290.56Z" style="fill:#455a64"></path><path d="M440.35,295.45a16.59,16.59,0,0,1,2.95-2.34,12.72,12.72,0,0,1,3.43-1.58l-3.16,2C442.51,294.19,441.46,294.85,440.35,295.45Z" style="fill:#263238"></path><path d="M431.08,225.36a11.65,11.65,0,0,1,5.76-2.65,7.48,7.48,0,0,1,6.05,1.87,11.56,11.56,0,0,1,3.08,5.66,27.11,27.11,0,0,1,.81,6.4,41.48,41.48,0,0,1-1.8,12.71,57.7,57.7,0,0,1-2.38,6c-.87,1.94-1.79,3.87-2.7,5.79-1.84,3.83-3.69,7.65-5.32,11.56a50.93,50.93,0,0,0-3.67,12.07,13,13,0,0,0,.43,6.14,7.3,7.3,0,0,0,4.09,4.34,8.85,8.85,0,0,0,6.11,0,11.55,11.55,0,0,0,5.14-3.58,11.36,11.36,0,0,1-5.05,3.83,9.27,9.27,0,0,1-6.38.23,7.27,7.27,0,0,1-2.74-1.8,9,9,0,0,1-1.76-2.78,13.63,13.63,0,0,1-.6-6.45,48,48,0,0,1,3.58-12.32c1.62-4,3.45-7.81,5.27-11.65.93-1.92,1.85-3.83,2.73-5.76a54.33,54.33,0,0,0,2.38-5.85A42.94,42.94,0,0,0,446,236.64a26.76,26.76,0,0,0-.65-6.25,11.21,11.21,0,0,0-2.8-5.46,7.1,7.1,0,0,0-5.7-2A11.89,11.89,0,0,0,431.08,225.36Z" style="fill:#455a64"></path><polygon points="440.22 119.12 420.11 77.66 399.47 118.35 398.58 117.89 420.13 75.41 441.12 118.68 440.22 119.12" style="fill:#dbdbdb"></polygon><path d="M422.25,76.53a2.13,2.13,0,1,1-2.13-2.12A2.13,2.13,0,0,1,422.25,76.53Z" style="fill:#a6a6a6"></path><polygon points="440.59 118.12 439.87 129.55 438.14 156.75 401.54 156.75 399.82 129.55 399.09 118.12 440.59 118.12" style="fill:#92E3A9"></polygon><polygon points="440.59 118.12 439.87 129.55 399.82 129.55 399.09 118.12 440.59 118.12" style="opacity:0.1"></polygon><rect x="396.58" y="114.46" width="46.53" height="8.87" style="fill:#92E3A9"></rect><path d="M447.17,120.72c1.36-1.9-3.85-3.72-6.67-2.16C440.5,118.56,445.27,123.39,447.17,120.72Z" style="fill:#455a64"></path><path d="M440.62,118.69a12.42,12.42,0,0,0,2.5,1.12,9.23,9.23,0,0,0,2.7.52l-2.58-.86C442.38,119.19,441.52,118.91,440.62,118.69Z" style="fill:#263238"></path><path d="M447.51,133.25c2.21-.73-.92-5.27-4.12-5.68C443.39,127.57,444.39,134.29,447.51,133.25Z" style="fill:#455a64"></path><path d="M443.42,127.75a12.69,12.69,0,0,0,1.35,2.38,9.16,9.16,0,0,0,1.87,2l-1.58-2.22C444.53,129.19,444,128.45,443.42,127.75Z" style="fill:#263238"></path><path d="M436.68,135c.46,2.29,5.34-.28,6.13-3.41C442.81,131.62,436,131.81,436.68,135Z" style="fill:#455a64"></path><path d="M442.63,131.63a12.77,12.77,0,0,0-2.53,1.06,9,9,0,0,0-2.21,1.62l2.38-1.31C441.07,132.56,441.86,132.13,442.63,131.63Z" style="fill:#263238"></path><path d="M432.91,143.36c.47,2.28,5.34-.28,6.13-3.41C439,140,432.26,140.14,432.91,143.36Z" style="fill:#455a64"></path><path d="M438.87,140a12,12,0,0,0-2.53,1,9.31,9.31,0,0,0-2.22,1.62l2.39-1.3C437.3,140.89,438.1,140.46,438.87,140Z" style="fill:#263238"></path><path d="M428.91,153.56c.47,2.28,5.34-.28,6.13-3.41C435,150.15,428.25,150.34,428.91,153.56Z" style="fill:#455a64"></path><path d="M434.86,150.16a13,13,0,0,0-2.53,1.06,9.18,9.18,0,0,0-2.21,1.62l2.39-1.31C433.3,151.09,434.09,150.66,434.86,150.16Z" style="fill:#263238"></path><path d="M432.85,165.3c2.08,1,3.1-4.36,1.14-6.92C434,158.38,429.92,163.81,432.85,165.3Z" style="fill:#455a64"></path><path d="M433.89,158.52a12.22,12.22,0,0,0-.75,2.64,9.31,9.31,0,0,0-.1,2.74l.46-2.68C433.65,160.32,433.8,159.43,433.89,158.52Z" style="fill:#263238"></path><path d="M447.43,165c1.06-2.08-4.36-3.1-6.92-1.14C440.51,163.89,446,168,447.43,165Z" style="fill:#455a64"></path><path d="M440.66,164a12,12,0,0,0,2.63.75,9.38,9.38,0,0,0,2.75.1l-2.69-.46C442.46,164.24,441.57,164.08,440.66,164Z" style="fill:#263238"></path><path d="M440.3,129.82c2,1.24,3.48-4.06,1.75-6.79C442.05,123,437.51,128.08,440.3,129.82Z" style="fill:#455a64"></path><path d="M441.94,123.17a11.67,11.67,0,0,0-1,2.56,8.88,8.88,0,0,0-.35,2.72l.7-2.63C441.53,124.94,441.77,124.07,441.94,123.17Z" style="fill:#263238"></path><path d="M437.41,123.63c2,1.24,3.49-4.06,1.76-6.79C439.17,116.84,434.63,121.88,437.41,123.63Z" style="fill:#455a64"></path><path d="M439.06,117a11.86,11.86,0,0,0-1,2.56,9.29,9.29,0,0,0-.36,2.72l.71-2.63C438.65,118.75,438.89,117.88,439.06,117Z" style="fill:#263238"></path><path d="M435,119.67c2.06.59,2.05-4.46-.16-6.44C434.83,113.23,432.1,118.83,435,119.67Z" style="fill:#455a64"></path><path d="M434.77,113.38a11.16,11.16,0,0,0-.22,2.51,8.49,8.49,0,0,0,.37,2.49l0-2.5C434.86,115.05,434.85,114.22,434.77,113.38Z" style="fill:#263238"></path><path d="M444,111.91c-.22-2.32-5.34-.28-6.46,2.75C437.55,114.66,444.32,115.18,444,111.91Z" style="fill:#455a64"></path><path d="M437.73,114.67a12.08,12.08,0,0,0,2.63-.79,9.24,9.24,0,0,0,2.37-1.38l-2.51,1C439.38,113.9,438.55,114.25,437.73,114.67Z" style="fill:#263238"></path><path d="M442.1,142c2.24.63,2.18-4.88-.25-7C441.85,135,438.93,141.14,442.1,142Z" style="fill:#455a64"></path><path d="M441.78,135.17a12,12,0,0,0-.21,2.74,9.3,9.3,0,0,0,.43,2.71l-.07-2.72C441.9,137,441.88,136.09,441.78,135.17Z" style="fill:#263238"></path><path d="M437.81,151.12c2.24.63,2.18-4.88-.25-7C437.56,144.12,434.64,150.24,437.81,151.12Z" style="fill:#455a64"></path><path d="M437.49,144.28a11.89,11.89,0,0,0-.21,2.73,9.25,9.25,0,0,0,.43,2.71l-.07-2.72C437.61,146.09,437.59,145.19,437.49,144.28Z" style="fill:#263238"></path><path d="M438.19,159.11c2.26-.58-.54-5.32-3.71-6C434.48,153.15,435,159.92,438.19,159.11Z" style="fill:#455a64"></path><path d="M434.5,153.33a12.45,12.45,0,0,0,1.18,2.47,9.13,9.13,0,0,0,1.73,2.14L436,155.62C435.51,154.85,435,154.07,434.5,153.33Z" style="fill:#263238"></path><path d="M444,160.61c-.18-2.33-5.33-.38-6.5,2.63C437.53,163.24,444.29,163.88,444,160.61Z" style="fill:#455a64"></path><path d="M437.71,163.25a12.2,12.2,0,0,0,2.64-.74,9.19,9.19,0,0,0,2.39-1.33l-2.53,1C439.38,162.52,438.53,162.85,437.71,163.25Z" style="fill:#263238"></path><path d="M436.19,108.42c-1.29-1.94-4.84,2.27-4.4,5.47C431.79,113.89,438,111.16,436.19,108.42Z" style="fill:#455a64"></path><path d="M432,113.81a11.87,11.87,0,0,0,1.95-1.93,8.89,8.89,0,0,0,1.44-2.33l-1.72,2.11C433.05,112.36,432.48,113.06,432,113.81Z" style="fill:#263238"></path><path d="M430.88,114.42a7.76,7.76,0,0,1,3.89-1.31,3.36,3.36,0,0,1,2,.64,10.22,10.22,0,0,1,.84.63l.76.73a18.8,18.8,0,0,1,2.47,3.35,22.34,22.34,0,0,1,1.81,3.75,14.41,14.41,0,0,1,.91,8.3,52.71,52.71,0,0,1-2.89,7.77c-1.13,2.51-2.31,5-3.4,7.48a33.48,33.48,0,0,0-2.53,7.69,18,18,0,0,0-.26,4,8.14,8.14,0,0,0,1.06,3.79,5,5,0,0,0,3.13,2.26,12,12,0,0,0,4.06.15,11.4,11.4,0,0,1-4.12.11,5.44,5.44,0,0,1-3.49-2.25,8.84,8.84,0,0,1-1.27-4,18.75,18.75,0,0,1,.13-4.17,31,31,0,0,1,2.45-7.94c1.07-2.53,2.22-5,3.32-7.52a51.65,51.65,0,0,0,2.93-7.59,14.32,14.32,0,0,0-.75-7.82,21.82,21.82,0,0,0-3.92-7l-.69-.74c-.25-.21-.49-.45-.76-.64a3,3,0,0,0-1.81-.69A8.18,8.18,0,0,0,430.88,114.42Z" style="fill:#455a64"></path><path d="M422.94,109.74c-.93-2.13-5.17,1.38-5.29,4.61C417.65,114.35,424.25,112.76,422.94,109.74Z" style="fill:#455a64"></path><path d="M417.82,114.3a12,12,0,0,0,2.25-1.55,9.22,9.22,0,0,0,1.84-2l-2.07,1.77C419.16,113.07,418.47,113.65,417.82,114.3Z" style="fill:#263238"></path><path d="M430.42,116.45c.76-2.21-4.74-2.48-7-.18C423.41,116.27,429.35,119.55,430.42,116.45Z" style="fill:#455a64"></path><path d="M423.57,116.35a12.47,12.47,0,0,0,2.71.38,9.25,9.25,0,0,0,2.73-.27l-2.71-.09C425.39,116.34,424.49,116.31,423.57,116.35Z" style="fill:#263238"></path><path d="M432.49,128.5c2-1.15-1.92-5-5.14-4.77C427.35,123.73,429.63,130.12,432.49,128.5Z" style="fill:#455a64"></path><path d="M427.41,123.89A12.28,12.28,0,0,0,429.2,126a9.13,9.13,0,0,0,2.23,1.61l-2-1.87C428.79,125.09,428.13,124.47,427.41,123.89Z" style="fill:#263238"></path><path d="M428.88,140.06c2.33-.07.64-5.31-2.3-6.63C426.58,133.43,425.6,140.15,428.88,140.06Z" style="fill:#455a64"></path><path d="M426.55,133.61a12.3,12.3,0,0,0,.61,2.67,9.12,9.12,0,0,0,1.22,2.46l-.88-2.58C427.2,135.31,426.92,134.45,426.55,133.61Z" style="fill:#263238"></path><path d="M423.17,149.08c2.21.72,2.38-4.79.05-7C423.22,142.06,420,148.06,423.17,149.08Z" style="fill:#455a64"></path><path d="M423.14,142.22a11.91,11.91,0,0,0-.33,2.72,9.32,9.32,0,0,0,.32,2.73l0-2.72C423.18,144,423.2,143.14,423.14,142.22Z" style="fill:#263238"></path><path d="M416.92,153.59c1.76,1.53,4.09-3.46,2.82-6.43C419.74,147.16,414.45,151.42,416.92,153.59Z" style="fill:#455a64"></path><path d="M419.6,147.27a13.11,13.11,0,0,0-1.37,2.38,9.18,9.18,0,0,0-.78,2.63l1.11-2.49C418.92,149,419.29,148.14,419.6,147.27Z" style="fill:#263238"></path><path d="M405.68,154.54c.31,2.31,5.35.09,6.35-3C412,151.56,405.25,151.28,405.68,154.54Z" style="fill:#455a64"></path><path d="M411.85,151.55a13,13,0,0,0-2.59.88,8.94,8.94,0,0,0-2.32,1.47l2.47-1.14C410.23,152.38,411.05,152,411.85,151.55Z" style="fill:#263238"></path><path d="M421.18,121.69c2.27.56,2-5-.45-7C420.73,114.69,418,120.91,421.18,121.69Z" style="fill:#455a64"></path><path d="M420.66,114.86a11.88,11.88,0,0,0-.13,2.73,8.91,8.91,0,0,0,.52,2.7l-.16-2.72C420.83,116.67,420.78,115.77,420.66,114.86Z" style="fill:#263238"></path><path d="M422.39,126.26c1.58,1.71,4.42-3,3.47-6.09C425.86,120.17,420.16,123.85,422.39,126.26Z" style="fill:#455a64"></path><path d="M425.71,120.26a12.44,12.44,0,0,0-1.61,2.22,9,9,0,0,0-1.05,2.54l1.36-2.36C424.86,121.88,425.31,121.09,425.71,120.26Z" style="fill:#263238"></path><path d="M422.67,133.75c1.13,2,5-1.87,4.81-5.1C427.48,128.65,421.07,130.88,422.67,133.75Z" style="fill:#455a64"></path><path d="M427.32,128.71a12.71,12.71,0,0,0-2.09,1.77,9.15,9.15,0,0,0-1.63,2.22l1.89-2C426.11,130.08,426.74,129.42,427.32,128.71Z" style="fill:#263238"></path><path d="M418.92,140.12c.2,2.32,5.34.34,6.48-2.68C425.4,137.44,418.64,136.85,418.92,140.12Z" style="fill:#455a64"></path><path d="M425.23,137.43a12.09,12.09,0,0,0-2.64.76,9.2,9.2,0,0,0-2.38,1.35l2.52-1C423.57,138.18,424.41,137.84,425.23,137.43Z" style="fill:#263238"></path><path d="M414.69,145.21c-.4,2.3,5.08,1.69,6.95-.94C421.64,144.27,415.25,142,414.69,145.21Z" style="fill:#455a64"></path><path d="M421.48,144.21a12.64,12.64,0,0,0-2.75.07,9.11,9.11,0,0,0-2.65.7l2.7-.35C419.68,144.51,420.57,144.4,421.48,144.21Z" style="fill:#263238"></path><path d="M409.87,147.92c-1.28,2,4,3.57,6.75,1.9C416.62,149.82,411.67,145.17,409.87,147.92Z" style="fill:#455a64"></path><path d="M416.49,149.7a12.64,12.64,0,0,0-2.54-1,8.92,8.92,0,0,0-2.72-.41l2.62.75C414.72,149.26,415.59,149.52,416.49,149.7Z" style="fill:#263238"></path><path d="M404.33,143.62c-2.32.22-.31,5.34,2.71,6.47C407,150.09,407.6,143.33,404.33,143.62Z" style="fill:#455a64"></path><path d="M407.05,149.92a12,12,0,0,0-.77-2.63,9.07,9.07,0,0,0-1.36-2.38l1,2.51C406.3,148.26,406.64,149.1,407.05,149.92Z" style="fill:#263238"></path><path d="M416.82,114.58a7.14,7.14,0,0,1,7,1.83,14,14,0,0,1,3.72,6.49,18.74,18.74,0,0,1,.22,7.53,33.87,33.87,0,0,1-2.09,7.21,38.45,38.45,0,0,1-3.48,6.63,21.61,21.61,0,0,1-5.07,5.55,11.35,11.35,0,0,1-3.39,1.74,6.43,6.43,0,0,1-3.81,0,7.6,7.6,0,0,1-5.31-4.9,6.65,6.65,0,0,0,2.18,2.89,8.62,8.62,0,0,0,3.26,1.52,5.86,5.86,0,0,0,3.49-.14,10.54,10.54,0,0,0,3.11-1.75c3.77-3,6.27-7.44,8.1-11.94a32.46,32.46,0,0,0,2.11-7,19.37,19.37,0,0,0-.06-7.2,13.39,13.39,0,0,0-3.33-6.33,6.69,6.69,0,0,0-3-2A7.44,7.44,0,0,0,416.82,114.58Z" style="fill:#455a64"></path><path d="M404.91,118.72c1.19,2.37,5.78-1.87,5.72-5.54C410.63,113.18,403.25,115.39,404.91,118.72Z" style="fill:#455a64"></path><path d="M410.44,113.24a13.85,13.85,0,0,0-2.46,1.91,10.37,10.37,0,0,0-2,2.42l2.23-2.13C409,114.73,409.74,114,410.44,113.24Z" style="fill:#263238"></path><path d="M401.28,118.76c2.09,1.62,4.39-4.19,2.75-7.47C404,111.29,398.34,116.48,401.28,118.76Z" style="fill:#455a64"></path><path d="M403.89,111.43a13.89,13.89,0,0,0-1.39,2.78,10.22,10.22,0,0,0-.71,3l1.09-2.89C403.23,113.39,403.6,112.43,403.89,111.43Z" style="fill:#263238"></path><path d="M400.09,125.63c2.65,0,.83-6-2.49-7.55C397.6,118.08,396.37,125.68,400.09,125.63Z" style="fill:#455a64"></path><path d="M397.58,118.27a13.66,13.66,0,0,0,.63,3,10.49,10.49,0,0,0,1.33,2.81l-.94-2.94C398.28,120.22,398,119.24,397.58,118.27Z" style="fill:#263238"></path><path d="M401.07,135c2.39-1.14-1.77-5.8-5.44-5.81C395.63,129.16,397.71,136.58,401.07,135Z" style="fill:#455a64"></path><path d="M395.69,129.35a14.24,14.24,0,0,0,1.86,2.5,10.47,10.47,0,0,0,2.4,2l-2.1-2.27C397.15,130.82,396.46,130.06,395.69,129.35Z" style="fill:#263238"></path><path d="M402.5,145c2.38-1.15-1.78-5.8-5.44-5.81C397.06,139.15,399.14,146.57,402.5,145Z" style="fill:#455a64"></path><path d="M397.11,139.34a14.29,14.29,0,0,0,1.86,2.49,10.26,10.26,0,0,0,2.4,2l-2.1-2.27C398.57,140.81,397.88,140.05,397.11,139.34Z" style="fill:#263238"></path><path d="M404.19,155.49c2.38-1.14-1.78-5.8-5.44-5.8C398.75,149.69,400.83,157.1,404.19,155.49Z" style="fill:#455a64"></path><path d="M398.8,149.88a14.17,14.17,0,0,0,1.86,2.49,10,10,0,0,0,2.4,2L401,152.1C400.26,151.34,399.57,150.59,398.8,149.88Z" style="fill:#263238"></path><path d="M403,167.78c2.62-.38,0-6.07-3.47-7.16C399.56,160.62,399.35,168.32,403,167.78Z" style="fill:#455a64"></path><path d="M399.56,160.82a13.81,13.81,0,0,0,1,2.93,10.16,10.16,0,0,0,1.69,2.61L401,163.58C400.52,162.65,400.08,161.72,399.56,160.82Z" style="fill:#263238"></path><path d="M392.38,174.7c1.69,2,5.2-3.13,4.32-6.69C396.7,168,390,171.83,392.38,174.7Z" style="fill:#455a64"></path><path d="M396.53,168.12a14.14,14.14,0,0,0-2,2.4,10.41,10.41,0,0,0-1.35,2.81l1.69-2.58C395.46,169.89,396,169,396.53,168.12Z" style="fill:#263238"></path><path d="M403.62,105.83c-2.46,1,1.38,5.91,5,6.16C408.65,112,407.08,104.46,403.62,105.83Z" style="fill:#455a64"></path><path d="M408.61,111.8a13.56,13.56,0,0,0-1.69-2.61,10.2,10.2,0,0,0-2.25-2.15l1.93,2.4C407.25,110.24,407.89,111,408.61,111.8Z" style="fill:#263238"></path><path d="M393,115.81c.09,2.64,6,.71,7.51-2.64C400.53,113.17,392.91,112.09,393,115.81Z" style="fill:#455a64"></path><path d="M400.33,113.15a13.74,13.74,0,0,0-3,.7,10.23,10.23,0,0,0-2.79,1.38l2.92-1C398.4,113.89,399.37,113.56,400.33,113.15Z" style="fill:#263238"></path><path d="M390.79,129.24c1.28,2.31,5.68-2.13,5.46-5.78C396.25,123.46,389,126,390.79,129.24Z" style="fill:#455a64"></path><path d="M396.06,123.52a13.47,13.47,0,0,0-2.37,2,9.91,9.91,0,0,0-1.84,2.51l2.13-2.23C394.69,125.07,395.4,124.33,396.06,123.52Z" style="fill:#263238"></path><path d="M392.42,141.5c1.94,1.79,4.73-3.8,3.38-7.2C395.8,134.3,389.68,139,392.42,141.5Z" style="fill:#455a64"></path><path d="M395.64,134.42a14.15,14.15,0,0,0-1.62,2.65,10.39,10.39,0,0,0-1,3l1.33-2.78C394.82,136.32,395.27,135.4,395.64,134.42Z" style="fill:#263238"></path><path d="M394.25,151.79c1.94,1.79,4.72-3.8,3.37-7.2C397.62,144.59,391.51,149.27,394.25,151.79Z" style="fill:#455a64"></path><path d="M397.47,144.71a13.69,13.69,0,0,0-1.63,2.65,10.27,10.27,0,0,0-1,3l1.33-2.78C396.65,146.61,397.09,145.68,397.47,144.71Z" style="fill:#263238"></path><path d="M394.79,160.92c1.66,2.05,5.23-3.08,4.39-6.64C399.18,154.28,392.45,158,394.79,160.92Z" style="fill:#455a64"></path><path d="M399,154.38a14.27,14.27,0,0,0-2,2.39,10.23,10.23,0,0,0-1.38,2.79l1.72-2.57C397.92,156.14,398.49,155.29,399,154.38Z" style="fill:#263238"></path><path d="M390.76,167.09c-.11,2.64,6,1.15,7.68-2.08C398.44,165,390.92,163.37,390.76,167.09Z" style="fill:#455a64"></path><path d="M398.24,165a13.92,13.92,0,0,0-3.07.48,10.32,10.32,0,0,0-2.88,1.17l3-.78C396.27,165.57,397.26,165.31,398.24,165Z" style="fill:#263238"></path><path d="M383.77,162.9c-2.39,1.13,1.76,5.81,5.42,5.82C389.19,168.72,387.14,161.3,383.77,162.9Z" style="fill:#455a64"></path><path d="M389.14,168.53a13.76,13.76,0,0,0-1.86-2.5,10.41,10.41,0,0,0-2.38-2l2.09,2.28C387.68,167.06,388.38,167.82,389.14,168.53Z" style="fill:#263238"></path><path d="M411.61,114.67a9.92,9.92,0,0,0-4.1-3.14,5.82,5.82,0,0,0-4.94.36,9.2,9.2,0,0,0-3.38,3.74,21.72,21.72,0,0,0-1.85,4.83,35.81,35.81,0,0,0-1.14,10.3,90.06,90.06,0,0,0,1.58,10.34c.62,3.45,1.25,6.92,1.68,10.42a39.73,39.73,0,0,1,.19,10.62,11.32,11.32,0,0,1-1.89,5,6.47,6.47,0,0,1-4.61,2.69,7.6,7.6,0,0,1-5-1.58,9.3,9.3,0,0,1-3.19-4.15,9.61,9.61,0,0,0,3.34,3.94,7.31,7.31,0,0,0,4.85,1.3,6,6,0,0,0,4.15-2.57,10.62,10.62,0,0,0,1.64-4.77,42.59,42.59,0,0,0-.33-10.39c-.46-3.47-1.12-6.91-1.76-10.36a90.55,90.55,0,0,1-1.51-10.48,34.15,34.15,0,0,1,1.32-10.55,23,23,0,0,1,2-4.93,9.61,9.61,0,0,1,3.7-3.86,6.19,6.19,0,0,1,5.25-.17A9.56,9.56,0,0,1,411.61,114.67Z" style="fill:#455a64"></path></g><g id="freepik--Character--inject-73"><polygon points="353.29 431.22 353.13 435.71 351.36 469.3 349.36 469.3 347.59 435.71 347.43 431.22 353.29 431.22" style="fill:#455a64"></polygon><polygon points="347.43 431.22 353.29 431.22 353.13 435.71 347.59 435.71 347.43 431.22" style="fill:#263238"></polygon><polygon points="368.18 431.22 368.02 435.71 366.25 469.3 364.25 469.3 362.48 435.71 362.32 431.22 368.18 431.22" style="fill:#455a64"></polygon><polygon points="362.32 431.22 368.18 431.22 368.02 435.71 362.48 435.71 362.32 431.22" style="fill:#263238"></polygon><polygon points="424.56 431.22 424.4 435.71 422.63 469.3 420.63 469.3 418.86 435.71 418.7 431.22 424.56 431.22" style="fill:#455a64"></polygon><polygon points="418.7 431.22 424.56 431.22 424.4 435.71 418.86 435.71 418.7 431.22" style="fill:#263238"></polygon><polygon points="439.45 431.22 439.29 435.71 437.51 469.3 435.52 469.3 433.74 435.71 433.58 431.22 439.45 431.22" style="fill:#455a64"></polygon><polygon points="433.58 431.22 439.45 431.22 439.29 435.71 433.74 435.71 433.58 431.22" style="fill:#263238"></polygon><rect x="343.41" y="420.98" width="100.06" height="10.24" style="fill:#455a64"></rect><path d="M80.08,460.33l153.46.66c37.3-29.29,41.15-72.68,14.54-99-16.1-15.91-36.55-12.7-56-15.23H192A57.37,57.37,0,0,1,172.24,341c-20.05-10.58-31.35-35.53-48.22-56.52q-3.15-4-6.6-7.66C103.54,262,75.94,261.5,61.49,282.32,24.8,335.23,41.61,414,80.08,460.33Z" style="fill:#dbdbdb"></path><path d="M76.68,339.26c4,63,76.72,86.47,122.14,67.61,39.48-16.41,26.56-53.84-6.77-60.1H192A57.37,57.37,0,0,1,172.24,341c-20.05-10.58-31.35-35.53-48.22-56.52C98.89,271.39,73.73,293.16,76.68,339.26Z" style="fill:#c7c7c7"></path><path d="M328.25,385.15l39.86,18.66c7,5.08,13.28,9.42,16.73,11.36a.09.09,0,0,0,.05,0,6.05,6.05,0,0,0,2.55,1.05h.07c2.93-1.06,45.23-56.05,46.06-58.46s-6-5-9.33-4.15-29,14.65-29,14.65L355.21,350Z" style="fill:#d3766a"></path><path d="M433.57,357.77c-.83,2.41-43.13,57.41-46.05,58.47,0,0,0,0-.08,0a6.13,6.13,0,0,1-2.55-1.06l-.06,0c-3.44-1.94-9.69-6.28-16.72-11.36l-6.93-3.25,26.59-35.71,7.5,3.43s25.61-13.81,29-14.65S434.41,355.35,433.57,357.77Z" style="fill:#ebebeb"></path><path d="M433.57,357.78c-.83,2.41-43.12,57.4-46.06,58.47-1.11.42-9.48-5.27-19.4-12.45l-.31-.22,26.89-35.78.59.48s25.6-13.81,29-14.65S434.41,355.36,433.57,357.78Z" style="fill:#92E3A9"></path><path d="M367.8,403.58a2.26,2.26,0,0,1,.31.23c9.92,7.17,18.28,12.86,19.4,12.44.94-.35,5.91-6.21,12.27-14.11l6.86-39.9c-6.08,3.19-11.36,6-11.36,6l-.58-.48Z" style="opacity:0.1"></path><path d="M431,356.76c-7.36,9.09-36.17,46.46-42.75,56-.06.08,0,.12.06.05,7.48-8.86,36-46.46,42.84-55.95C431.26,356.67,431.11,356.57,431,356.76Z" style="fill:#263238"></path><path d="M397.68,365.38c-3.48,3.12-6.36,8-5.9,12.8,0,.18.28.16.33,0a64.88,64.88,0,0,1,6-12.44A.29.29,0,0,0,397.68,365.38Z" style="fill:#263238"></path><path d="M401.29,364c-3.48,3.12-6.35,8-5.9,12.8,0,.18.28.15.34,0a65.21,65.21,0,0,1,6-12.45A.29.29,0,0,0,401.29,364Z" style="fill:#263238"></path><path d="M404.9,362.55c-3.48,3.13-6.35,8-5.9,12.8,0,.19.28.16.34,0a64.84,64.84,0,0,1,6-12.44A.3.3,0,0,0,404.9,362.55Z" style="fill:#263238"></path><path d="M141.06,336.23c.81.26,23.13,9.61,28.45,11.11,1.59.45,82.25-28.29,103-28,30.08.46,114.41,42.42,114.41,42.42l-22.66,43.79S288.89,368,268.57,367.31c-10.15-.36-72,22.66-102.78,26.61-38,4.89-54.93-22.22-54.93-22.22S136.85,341.15,141.06,336.23Z" style="fill:#37474f"></path><path d="M376.18,358.91c-3.5,6.59-2.59,4.65-6,11.28-1.68,3.25-12.67,24.59-13.7,27.89a.08.08,0,0,0,.14.06c2-2.79,12.65-24.31,14.27-27.59,3.29-6.7,2.27-4.81,5.49-11.54A.11.11,0,0,0,376.18,358.91Z" style="fill:#263238"></path><path d="M353.28,391.54q-14.37-6.3-28.87-12.29c-9.65-4-19.33-8-29.12-11.63-4.9-1.81-9.82-3.59-14.81-5.07a48.19,48.19,0,0,0-7.57-1.75l-.94-.09-1,0c-.63,0-1.28.12-1.91.17-1.29.17-2.57.38-3.85.63-5.12,1-10.19,2.25-15.25,3.54s-10.1,2.67-15.14,4.05l-30.26,8.31c-10.08,2.76-20.17,5.52-30.35,8a133.5,133.5,0,0,1-15.43,3c-5.3.48-10.54-.8-15.48-2.49a98.34,98.34,0,0,1-14.29-6.5,139.54,139.54,0,0,1-13.33-8.27,135.4,135.4,0,0,0,13.45,8.05,96.41,96.41,0,0,0,14.33,6.26c4.92,1.64,10.1,2.88,15.27,2.37a130.64,130.64,0,0,0,15.32-3.08c10.15-2.51,20.22-5.32,30.29-8.13l30.21-8.47c5-1.36,10.11-2.7,15.19-4s10.16-2.51,15.32-3.47c1.29-.24,2.59-.44,3.9-.61.66-.05,1.31-.17,2-.17l1,0,1,.09a49.49,49.49,0,0,1,7.69,1.83c5,1.51,9.93,3.32,14.83,5.16,9.79,3.71,19.46,7.71,29.08,11.8S343.77,387.19,353.28,391.54Z" style="fill:#263238"></path><path d="M321.11,413.67,365,416.43c8.4,2.15,15.81,3.9,19.73,4.44h.06a6.27,6.27,0,0,0,2.76.05s.05,0,.06,0c2.34-2.07,21.55-68.73,21.44-71.28s-7.39-2.43-10.2-.43-21.59,24.23-21.59,24.23l-44-2.32Z" style="fill:#d3766a"></path><path d="M409.08,349.61c.12,2.55-19.09,69.22-21.43,71.28,0,0,0,0-.07,0a6.06,6.06,0,0,1-2.75-.05h-.07c-3.91-.54-11.31-2.29-19.72-4.44l-7.64-.49,11.67-43,8.23.43s18.77-22.22,21.59-24.24S409,347.05,409.08,349.61Z" style="fill:#ebebeb"></path><path d="M409.09,349.61c.11,2.56-19.1,69.21-21.44,71.28-.88.8-10.75-1.43-22.61-4.47l-.37-.1,11.91-43.14.73.23s18.76-22.23,21.58-24.23S409,347.06,409.09,349.61Z" style="fill:#92E3A9"></path><path d="M406.29,349.62c-3.52,11.16-16.64,56.49-19.26,67.78,0,.09,0,.11.07,0,3.72-11,16.47-56.41,19.37-67.74C406.53,349.44,406.36,349.39,406.29,349.62Z" style="fill:#263238"></path><path d="M378.48,369.83c-2.1,4.19-3,9.79-.8,14.08.08.16.32,0,.31-.12A65.07,65.07,0,0,1,379,370,.29.29,0,0,0,378.48,369.83Z" style="fill:#263238"></path><path d="M381.32,367.2c-2.1,4.18-3,9.78-.8,14.07.08.17.32,0,.31-.11a65,65,0,0,1,1.05-13.78A.3.3,0,0,0,381.32,367.2Z" style="fill:#263238"></path><path d="M384.17,364.56c-2.1,4.18-3,9.79-.81,14.07.09.17.32.05.32-.11a64.33,64.33,0,0,1,1-13.78A.29.29,0,0,0,384.17,364.56Z" style="fill:#263238"></path><path d="M135.89,342.25c.8.26,33.11,13.24,33.72,14.57.68,1.51,3.4,9.6,4.1,12,0,0,94.83-4.72,99.36-4.61,18.32.41,32.31,3.62,103.74,8.19l-12.45,45.83s-84.1-7.87-112.52-9c-24.37-1-98.66.31-98.66.31-46,.25-50.74-31.74-50.74-31.74S135.86,342.23,135.89,342.25Z" style="fill:#37474f"></path><path d="M366,372.66c-2,7.19-1.53,5.1-3.44,12.31-.93,3.53-7.06,26.73-7.36,30.18,0,.08.12.11.15,0,1.39-3.17,7.11-26.48,8-30,1.77-7.25,1.19-5.19,2.88-12.46A.11.11,0,0,0,366,372.66Z" style="fill:#263238"></path><path d="M173.8,355.86a91.21,91.21,0,0,0-.54,15.76.16.16,0,0,0,.32,0c.34-5.23.8-10.5.85-15.74A.32.32,0,0,0,173.8,355.86Z" style="fill:#263238"></path><path d="M142.44,345.23c-.16-.05-.31.2-.14.27,5.32,2.1,9.84,4.32,14.62,6.76,2.21,1.14,14.18,8.11,11.64,11.72-.42.61-1.21.69-2.26.39a17.66,17.66,0,0,1-3.69-2.11c-2.48-1.51-5-2.94-7.6-4.25a78.44,78.44,0,0,0-15.1-5.9.14.14,0,1,0-.09.26A148.84,148.84,0,0,1,160.09,362c3.1,1.83,7.41,5.5,9.31,2.25s-5.48-8.95-7.59-10.3A82.16,82.16,0,0,0,142.44,345.23Z" style="fill:#263238"></path><path d="M169,364a24.92,24.92,0,0,0,2.27,2,6.41,6.41,0,0,0,2,1.24c.14,0,.23-.14.17-.25a8.38,8.38,0,0,0-1.74-1.78c-.69-.63-1.37-1.28-2.08-1.89A.48.48,0,0,0,169,364Z" style="fill:#263238"></path><path d="M273.69,363.7c-7.08-.36-98.77,5-100,5.14-.12,0-.09.32,0,.32,4.19.07,93.55-4.74,99.84-4.24,4.5.36,98.67,7.33,103.17,7.6.12,0,.14-.2,0-.22C368.82,371,274.64,363.75,273.69,363.7Z" style="fill:#263238"></path><path d="M308.48,405.46c-15.19-1.41-30.44-2.31-45.68-2.85s-30.66-.69-46-.42-30.65,1-45.94,2.15a184.31,184.31,0,0,1-21.79.77c-7.18-.33-17-2.36-23-6.48-13.3-9.14-18-19.91-20.4-22.11-.09-.09-.21,0-.14.14,9.62,14.49,20.26,32.94,57.78,29.13,9-.91,15.11-1,22.68-1.38q11.64-.59,23.3-.86c15.4-.36,30.8-.39,46.2,0s30.79,1.22,46.14,2.42,30.76,2.89,46.13,4.53c2,.21,4,.49,6,.76.11,0,.15-.15,0-.17C338.71,408.9,323.65,406.88,308.48,405.46Z" style="fill:#263238"></path><path d="M106,299.74c12.43,16.88,41.84,32.56,50,31.14,9.51-1.67,30.66-18.79,36.47-34.21,1.38-3.66-22.22-12.94-24.94-9.77-5.57,6.52-16.73,16.33-17.81,16.71-2.15.76-19.84-6.75-33.69-11.78C98.76,285.57,101,293,106,299.74Z" style="fill:#d3766a"></path><path d="M190.53,300.85s6.15-11.08,4.82-19.6c-.91-5.9-5.59-20.93-22.13-27.51-3.93-1.56-10.63-1-5.14,3.87,3.89,3.47,7.41,4.49,9.31,6.92,0,0-8.44,1.72-9.85,5.71a76.85,76.85,0,0,0-2.94,10.7,18.32,18.32,0,0,0,2,.73s-1,3.85,1.86,9.19Z" style="fill:#d3766a"></path><path d="M155.62,252.15l-1.37,32.54c-.15,1,.46,1.62,1.36,1.43l15.95-3.31a2.62,2.62,0,0,0,1.87-2.1l1.38-32.54c.14-1-.47-1.62-1.36-1.44l-16,3.32A2.62,2.62,0,0,0,155.62,252.15Z" style="fill:#a6a6a6"></path><path d="M157.51,251.74l-1.37,32.54c-.14,1,.46,1.62,1.36,1.44l15.95-3.32a2.64,2.64,0,0,0,1.88-2.1l1.37-32.54c.14-1-.47-1.62-1.36-1.44l-16,3.32A2.62,2.62,0,0,0,157.51,251.74Z" style="fill:#c7c7c7"></path><path d="M162.18,252.25a1.38,1.38,0,1,1-1.61-1.11A1.38,1.38,0,0,1,162.18,252.25Z" style="fill:#263238"></path><path d="M192.33,273.33c-2.39-2-7.54-6.19-12.94-8.14-6-2.17-18.13-4.74-19.68-.29-1.14,3.25,3.4,4.64,3.4,4.64s-5.24,0-5.62,3.16c-.36,2.89,3.23,3.75,3.23,3.75s-3.18.55-3,3.39c.24,3.43,6.86,1.72,10.1,5C168.55,285.56,192.33,273.33,192.33,273.33Z" style="fill:#d3766a"></path><path d="M178.16,271.91a25.38,25.38,0,0,0-14.95-2.46c-.13,0-.18.14-.06.14a62.62,62.62,0,0,1,15,2.37S178.19,271.92,178.16,271.91Z" style="fill:#263238"></path><path d="M175.79,277.89c-2.34-1.08-9.35-2.8-15.06-1.55-.13,0-.18.14,0,.14A66.4,66.4,0,0,1,175.77,278S175.82,277.91,175.79,277.89Z" style="fill:#263238"></path><path d="M166.4,283.78c.51,1.82,1,3.59,1.65,5.3.31.86.69,1.7,1.08,2.52a23.46,23.46,0,0,0,1.42,2.39,9.9,9.9,0,0,1-3.27-4.62,15.57,15.57,0,0,1-.72-2.76A11.17,11.17,0,0,1,166.4,283.78Z" style="fill:#263238"></path><path d="M121.2,316.57l10.14-20.1s-14.19-6.79-23.56-8.28-9.09,4.22-3.23,11.36S121.2,316.57,121.2,316.57Z" style="fill:#92E3A9"></path><path d="M128.65,301.8l-7.45,14.77s-10.79-9.88-16.65-17c-4.4-5.37-5.66-9.93-2-11.23Z" style="opacity:0.1"></path><path d="M126.53,295.12a142.79,142.79,0,0,0-8.9,16.94s.11.1.13.07c2.7-4.47,7.41-13.78,9-16.9C126.76,295.17,126.57,295.07,126.53,295.12Z" style="fill:#263238"></path><path d="M157.08,340.92c-.49,2.11-55.25,47.47-55.76,47.26-1.38-.57-24.44-60.58-13.79-93,1.88-5.71,10.68-9.18,15.7-7.41,11.24,4,38.77,39.11,40.76,41.1C147.68,332.59,157.19,340.42,157.08,340.92Z" style="fill:#92E3A9"></path><path d="M105.53,298.91c-3.51,1.68-11.09-2.57-14.59-6.59-.24-.28-1.68-13.1-2.23-15.61-.12-.51,16.6.37,16.6.37a41.34,41.34,0,0,0,.59,10C106,287.42,108.91,297.28,105.53,298.91Z" style="fill:#d3766a"></path><path d="M105.32,277.08h0c0,.08,0,.41,0,.93,0,.89-.07,2.34,0,4a29.47,29.47,0,0,0,.61,5.07,3.58,3.58,0,0,0,.09.35v.05c.06.21.13.48.21.8a9.68,9.68,0,0,1-1.51.42c-8.62,1.69-13.82-8.21-15.5-12.08h.28c.43,0,1,0,1.69,0h.53c1.11,0,2.43.05,3.8.09.46,0,.91,0,1.37.05l2.91.11,1.17.06,1.18.05.55,0,.25,0,1.39.07.66,0,.28,0h.06Z" style="fill:#263238"></path><path d="M101.45,264.43c1.09,4.06,4.87,6.57,8.43,5.62s5.57-5,4.48-9.09-4.87-6.58-8.43-5.62S100.36,260.36,101.45,264.43Z" style="fill:#455a64"></path><path d="M99.43,265.24c1.21,4.52,5.41,7.32,9.38,6.26s6.19-5.59,5-10.11-5.41-7.32-9.38-6.25S98.22,260.73,99.43,265.24Z" style="fill:#c7c7c7"></path><path d="M83.36,258.22c-.88,5.91,4.53,21.79,9.1,24.84,6.62,4.41,16.25,3.49,19.7-4.18,3.34-7.44-4.08-28-9.06-30.66C95.75,244.33,84.68,249.48,83.36,258.22Z" style="fill:#d3766a"></path><path d="M85.19,272s-6.73-9.28-6.65-15c0-2.58,3.38-4.58,3.38-4.58a5.8,5.8,0,0,1,1.34-6c2.78-3.09,10.14-3.06,10.14-3.06s4.17-7.24,11.1-5.08,3.2,10.12,3.2,10.12,2.75,3.29-3,6.52c-5.63,3.14-17.8,1.52-17.8,1.52a41.92,41.92,0,0,1,.84,12.4A3.83,3.83,0,0,1,85.19,272Z" style="fill:#263238"></path><path d="M94.57,243.44a11.76,11.76,0,0,0-4.79-.47,12.86,12.86,0,0,0-4.19,1c-2.34,1.07-4.34,3-4.52,5.71a4.9,4.9,0,0,0,1.24,3.63s.1,0,.06-.07c-1.71-1.79-1.14-4.84.32-6.58,1.66-2,4.38-2.89,6.86-3.2a20.84,20.84,0,0,1,5,.11A.07.07,0,0,0,94.57,243.44Z" style="fill:#263238"></path><path d="M109.57,241.2a5.77,5.77,0,0,0-4.28-3.33,9.82,9.82,0,0,0-6.33.75,12.41,12.41,0,0,0-4.87,4.28s0,.08.07,0a10.88,10.88,0,0,1,10-4.71A5.31,5.31,0,0,1,109,245.8a11.05,11.05,0,0,1-4,4.67s0,.09,0,.06a11.33,11.33,0,0,0,4-4A6.46,6.46,0,0,0,109.57,241.2Z" style="fill:#263238"></path><path d="M106.14,255.19a20.17,20.17,0,0,1-8.31,2.16,40.8,40.8,0,0,1-9-.48c-1.73-.26-3.45-.6-5.16-1,0,0-.07.07,0,.08A45.12,45.12,0,0,0,93,258a22.7,22.7,0,0,0,8.75-.8,19.58,19.58,0,0,0,4.43-2S106.18,255.18,106.14,255.19Z" style="fill:#263238"></path><path d="M89,271s-4.58-4.64-6.75-2.92,1.89,8.87,4.88,9.44a2.9,2.9,0,0,0,3.57-2.18Z" style="fill:#d3766a"></path><path d="M83.46,270.07a0,0,0,0,0,0,.08c2.11.46,3.45,2.11,4.5,3.88a1.6,1.6,0,0,0-2.43,0c0,.05,0,.12.07.1a1.76,1.76,0,0,1,2,.29,8,8,0,0,1,1.19,1.4c.13.16.43,0,.33-.18l0,0C88.74,273,86.19,269.87,83.46,270.07Z" style="fill:#263238"></path><path d="M97.12,263.21c.45-.27.83-.59,1.25-.9s.88-.58,1.09-1.16a.79.79,0,0,0-.4-.88,2,2,0,0,0-2,.37,2.86,2.86,0,0,0-1.23,1.66A.84.84,0,0,0,97.12,263.21Z" style="fill:#263238"></path><path d="M108.37,260a13.21,13.21,0,0,1-1.54.05,2.43,2.43,0,0,1-1.57-.24.79.79,0,0,1-.23-.94,2,2,0,0,1,1.77-.91,2.84,2.84,0,0,1,2,.56A.84.84,0,0,1,108.37,260Z" style="fill:#263238"></path><path d="M101.73,275.87c.34.18.71.46,1.12.37a3,3,0,0,0,1.11-.63,0,0,0,0,1,.07.05,1.56,1.56,0,0,1-1.23,1,1.25,1.25,0,0,1-1.17-.72C101.6,275.89,101.68,275.84,101.73,275.87Z" style="fill:#263238"></path><path d="M101.91,272.2a3.93,3.93,0,0,0,3,.94,5.09,5.09,0,0,0,1.37-.34l.25-.11.24-.11a.3.3,0,0,0,.15-.31h0a.49.49,0,0,0,0-.11h0l0-.1c-.23-.86-.7-2.13-.7-2.13.36.06,2.16.31,2-.13a59.12,59.12,0,0,0-4.84-11c-.07-.11-.25,0-.2.09,1.13,3.54,2.86,6.85,4,10.39a7,7,0,0,0-1.94,0c-.11.08,1,2.45,1,2.85v0a5.46,5.46,0,0,1-4.27-.06C101.88,272,101.82,272.13,101.91,272.2Z" style="fill:#263238"></path><path d="M105.67,272.51a4.66,4.66,0,0,1-1.38,1.93,2.08,2.08,0,0,1-1.2.43c-1,0-1.22-.77-1.26-1.52a4.92,4.92,0,0,1,.08-1.18A6,6,0,0,0,105.67,272.51Z" style="fill:#263238"></path><path d="M104.29,274.44a2.08,2.08,0,0,1-1.2.43c-1,0-1.22-.77-1.26-1.52A2.18,2.18,0,0,1,104.29,274.44Z" style="fill:#ff9abb"></path><path d="M100.44,265.16s-.07.08-.06.12c.33,1.11.52,2.42-.39,3.06a0,0,0,0,0,0,.06C101.2,267.9,100.93,266.16,100.44,265.16Z" style="fill:#263238"></path><path d="M99.15,264.26c-1.83.34-1,4,.66,3.65S100.68,264,99.15,264.26Z" style="fill:#263238"></path><path d="M106.88,263.29c0-.05.1,0,.11.08.2,1.13.62,2.39,1.72,2.55,0,0,0,.06,0,.06C107.44,266.07,106.89,264.39,106.88,263.29Z" style="fill:#263238"></path><path d="M107.63,261.9c1.78-.52,2.69,3.07,1.05,3.56S106.14,262.34,107.63,261.9Z" style="fill:#263238"></path><path d="M83.33,266.79S80,258.23,81,252.59c1.15-6.28,7.47-10.66,12.58-9.43,0,0-5.23-.69-9,8.71-1.59,4,1.75,14.23,1.75,14.23Z" style="fill:#c7c7c7"></path><path d="M92.93,268.61c1.46,4.45-.52,9.09-4.41,10.37s-8.25-1.28-9.71-5.73.52-9.08,4.42-10.37S91.47,264.17,92.93,268.61Z" style="fill:#c7c7c7"></path><path d="M90.79,269c1.31,4-.46,8.16-4,9.32s-7.41-1.16-8.72-5.15.46-8.17,4-9.32S89.48,265,90.79,269Z" style="fill:#455a64"></path><path d="M87.36,270.24A4.14,4.14,0,1,1,82,267.08,4.42,4.42,0,0,1,87.36,270.24Z" style="fill:#37474f"></path><path d="M91.16,309.82c10.63,23.5,24.94,36.77,29.83,36.28,13.17-1.31,28.94-27.67,34-34.22,2-2.64-23.64-14.55-25.48-11.48-4.32,7.23-9.79,18.23-10.17,18.43-.76.42-5.25-4.37-19.57-17.47C88.18,290.76,86.82,300.21,91.16,309.82Z" style="fill:#d3766a"></path><path d="M155.69,267.94c2.46,2.19-3.45,7.79-3.45,7.79a6.11,6.11,0,0,1,4.11.37c2.22,1.17,1.36,5.15,1.36,5.15a7.45,7.45,0,0,1,4.27,1.08c2,1.33,1.71,5.47,1.71,5.47a6.82,6.82,0,0,1,3.16,3.32c2.61,6.49-9.47,20.05-13.74,23.18l-23.9-12.19s2.84-17.87,7.55-23.56C139.37,275.4,151.93,264.6,155.69,267.94Z" style="fill:#d3766a"></path><path d="M152.13,275.72A55.15,55.15,0,0,0,142,284.53c-.06.07.05.18.12.11,3-3.21,7-5.68,10.13-8.76C152.35,275.8,152.23,275.65,152.13,275.72Z" style="fill:#263238"></path><path d="M157.38,281.11a11.88,11.88,0,0,0-2.16,2.15c-.71.82-1.41,1.64-2.1,2.48-1.37,1.68-2.7,3.38-4,5.13-.06.07.05.18.11.1,1.37-1.66,2.76-3.31,4.2-4.92l2.18-2.4a14.13,14.13,0,0,0,2-2.33A.16.16,0,0,0,157.38,281.11Z" style="fill:#263238"></path><path d="M163.63,287.87a8,8,0,0,0-1.84,2c-.61.77-1.22,1.55-1.84,2.32-1.23,1.54-2.47,3.07-3.76,4.57-.06.07.05.18.11.1,1.32-1.51,2.66-3,4-4.53.64-.74,1.27-1.5,1.91-2.25a7.56,7.56,0,0,0,1.54-2.19A.05.05,0,0,0,163.63,287.87Z" style="fill:#263238"></path><path d="M165.51,289.13a5.45,5.45,0,0,1,1.86,3.3,7.84,7.84,0,0,1-.46,3.84,33,33,0,0,1-3.44,6.87,49,49,0,0,1-4.62,6.11,41.28,41.28,0,0,1-5.59,5.23l.05-.05c-1.12,1.58-7.87,11.43-9.72,13.31,1-1.67,8.29-11.93,9.33-13.57l0,0,0,0a50.79,50.79,0,0,0,5.3-5.38,59,59,0,0,0,4.54-6,40.36,40.36,0,0,0,3.57-6.63,7.76,7.76,0,0,0,.65-3.6A5.51,5.51,0,0,0,165.51,289.13Z" style="fill:#263238"></path><path d="M99,329.13,115.68,314s-10.82-11.42-19-16.16-10,.68-7.08,9.45S99,329.13,99,329.13Z" style="fill:#92E3A9"></path><path d="M111.22,311.16a142.4,142.4,0,0,0-14.38,12.62s.07.14.1.12c4.12-3.21,11.85-10.21,14.42-12.57C111.41,311.29,111.27,311.12,111.22,311.16Z" style="fill:#263238"></path><path d="M94.86,321.68c-.35-.49-.7-1-1-1.48a11.6,11.6,0,0,1-1.06-2s0-.06,0,0c.2.31.36.65.55,1l.58.95c.2.33.4.65.62,1-.83-1.87-1.62-3.76-2.32-5.69,0,0,.06-.09.08,0,1.06,1.92,5.85,12.43,6.58,13.66.3-.18,1.6-1.33,2-1.53.08,0,.07.14,0,.22a10,10,0,0,1-2.3,2.11C98.48,329.76,95.72,323.58,94.86,321.68Z" style="fill:#263238"></path><path d="M112.42,310.19c-.31-.41-.62-.82-1-1.21a9.68,9.68,0,0,0-1.4-1.39s-.06,0,0,0c.21.24.45.46.66.7l.63.72c.22.24.44.49.64.75-1.32-1.16-1.82-1.57-3.22-2.63a0,0,0,1,0,0,.06c1.3,1.35,6,5.82,6.84,6.68-.22.19-.76.86-1,1.11-.06.05.06.14.14.11a5.77,5.77,0,0,0,1.65-1.37C116.36,313.67,113.76,311.37,112.42,310.19Z" style="fill:#263238"></path></g><g id="freepik--musical-notes--inject-73"><path d="M129.51,179.93a3.51,3.51,0,1,1-2.79-4.11A3.51,3.51,0,0,1,129.51,179.93Z" style="fill:#455a64"></path><rect x="128.51" y="162.14" width="2.68" height="17.65" transform="translate(34.23 -21.25) rotate(10.77)" style="fill:#455a64"></rect><path d="M141.63,177a3.51,3.51,0,1,1-2.79-4.1A3.5,3.5,0,0,1,141.63,177Z" style="fill:#455a64"></path><rect x="140.63" y="159.25" width="2.68" height="17.65" transform="translate(33.89 -23.56) rotate(10.77)" style="fill:#455a64"></rect><polygon points="144.93 159.69 129.74 164.37 130.18 162.05 145.37 157.37 144.93 159.69" style="fill:#455a64"></polygon><polygon points="144.1 164.06 128.91 168.73 129.35 166.42 144.54 161.74 144.1 164.06" style="fill:#455a64"></polygon><path d="M129.14,236.13a2,2,0,0,1-2.29,1.55,2,2,0,1,1,2.29-1.55Z" style="fill:#455a64"></path><rect x="128.58" y="226.23" width="1.49" height="9.83" transform="translate(45.44 -20.09) rotate(10.76)" style="fill:#455a64"></rect><path d="M135.88,234.51a2,2,0,1,1-1.55-2.28A2,2,0,0,1,135.88,234.51Z" style="fill:#455a64"></path><rect x="135.32" y="224.61" width="1.49" height="9.83" transform="translate(45.27 -21.38) rotate(10.77)" style="fill:#455a64"></rect><polygon points="137.72 224.86 129.26 227.46 129.51 226.17 137.97 223.57 137.72 224.86" style="fill:#455a64"></polygon><path d="M112.81,222a3.51,3.51,0,1,1-2.8-4.11A3.52,3.52,0,0,1,112.81,222Z" style="fill:#455a64"></path><rect x="111.8" y="204.21" width="2.68" height="17.65" transform="translate(41.78 -17.39) rotate(10.77)" style="fill:#455a64"></rect><rect x="122.77" y="201.55" width="2.68" height="5.1" transform="translate(40.33 -19.6) rotate(10.77)" style="fill:#455a64"></rect><polygon points="125.78 202.52 113.03 206.43 113.48 204.11 126.22 200.2 125.78 202.52" style="fill:#455a64"></polygon><polygon points="124.95 206.88 112.2 210.8 112.64 208.48 125.39 204.57 124.95 206.88" style="fill:#455a64"></polygon></g></svg>